<svg width="180" height="70" viewBox="0 0 180 70" fill="none" xmlns="http://www.w3.org/2000/svg">
<path d="M146.174 0.856844L40.9686 1.1484L36.4098 21.8782L141.846 21.5786L146.174 0.856844Z" fill="#E8E7E6"/>
<path d="M45.3169 17.5505C45.2629 18.0933 44.7876 18.4981 44.2418 18.4663C43.6622 18.471 43.4368 18.1623 43.5719 17.5524L46.0274 6.35008C46.0763 6.07276 46.2079 5.8162 46.4051 5.61393C46.5871 5.44423 46.8288 5.35291 47.0773 5.35994L51.0535 5.35843C52.8235 5.34394 54.0584 5.60716 54.7456 6.10473C55.4328 6.6023 55.6598 7.40183 55.4204 8.49716C55.2371 9.52248 54.6642 10.4396 53.821 11.0573C52.8617 11.6865 51.7271 11.994 50.5832 11.9349L46.526 11.9681L45.3169 17.5505ZM49.9544 10.269C50.8925 10.335 51.8356 10.2219 52.7329 9.93558C53.2221 9.67386 53.5532 9.19098 53.6198 8.64237C53.7262 8.30915 53.7073 7.94929 53.5665 7.63019C53.3613 7.36065 53.0502 7.1915 52.7111 7.16506C52.0334 7.05801 51.3468 7.01372 50.6603 7.03277L47.6003 7.05783L46.8944 10.294L49.9544 10.269Z" fill="#131614"/>
<path d="M45.3169 17.5505C45.2629 18.0933 44.7876 18.4981 44.2418 18.4663C43.6622 18.471 43.4368 18.1623 43.5719 17.5524L46.0274 6.35008C46.0763 6.07276 46.2079 5.8162 46.4051 5.61393C46.5871 5.44423 46.8288 5.35291 47.0773 5.35994L51.0535 5.35843C52.8235 5.34394 54.0584 5.60716 54.7456 6.10473C55.4328 6.6023 55.6598 7.40183 55.4204 8.49716C55.2371 9.52248 54.6642 10.4396 53.821 11.0573C52.8617 11.6865 51.7271 11.994 50.5832 11.9349L46.526 11.9681L45.3169 17.5505ZM49.9544 10.269C50.8925 10.335 51.8356 10.2219 52.7329 9.93558C53.2221 9.67386 53.5532 9.19098 53.6198 8.64237C53.7262 8.30915 53.7073 7.94929 53.5665 7.63019C53.3613 7.36065 53.0502 7.1915 52.7111 7.16506C52.0334 7.05801 51.3468 7.01372 50.6603 7.03277L47.6003 7.05783L46.8944 10.294L49.9544 10.269Z" fill="#131614"/>
<path d="M44.2563 18.6185C43.9891 18.6404 43.7272 18.5396 43.5449 18.3448C43.3799 18.1007 43.3375 17.7939 43.4299 17.5133L45.8854 6.31107C45.9388 6.00252 46.0857 5.71726 46.3065 5.49381C46.513 5.29038 46.7952 5.18216 47.0845 5.19546L51.0607 5.19396C52.8868 5.179 54.1217 5.44844 54.8464 5.97055C55.5711 6.49266 55.8357 7.36021 55.5778 8.52402C55.3938 9.60478 54.7902 10.5718 53.8979 11.2153C52.9153 11.8543 51.7532 12.1602 50.5852 12.0873L46.6527 12.1195L45.4246 17.615C45.342 18.1934 44.8419 18.6229 44.2563 18.6185ZM47.0544 5.51875C46.8488 5.51509 46.6497 5.59265 46.5005 5.7345C46.3332 5.90693 46.2193 6.12358 46.1723 6.35842L43.7168 17.5606C43.6434 17.7471 43.6555 17.9559 43.7498 18.1319C43.8785 18.2483 44.0505 18.3055 44.224 18.2895C44.4548 18.3136 44.6859 18.2429 44.8641 18.0938C45.0423 17.9447 45.1523 17.7299 45.1687 17.499L46.396 11.7613L50.5778 11.727C51.6765 11.7787 52.7655 11.4851 53.6911 10.8877C54.5051 10.2811 55.0554 9.38693 55.2284 8.39021C55.4555 7.34469 55.2536 6.61329 54.5977 6.15274C53.9417 5.69219 52.7256 5.44124 50.993 5.43679L47.023 5.43825L47.0544 5.51875ZM50.187 10.4194L49.9564 10.4213L46.7032 10.448L47.4766 6.90063L50.6613 6.87455C51.3581 6.85892 52.0547 6.9031 52.7433 7.00659C53.1276 7.03871 53.4783 7.23522 53.7049 7.54539C53.8654 7.89835 53.889 8.29869 53.771 8.66928C53.6995 9.26713 53.3344 9.79179 52.7972 10.0688C51.9579 10.3558 51.0709 10.475 50.187 10.4194ZM47.0698 10.1095L49.9366 10.086C50.8513 10.1524 51.7712 10.0437 52.6466 9.76563C53.0927 9.52789 53.3924 9.08554 53.4466 8.58496C53.5512 8.29094 53.5501 7.97029 53.4436 7.67799C53.2551 7.45156 52.9829 7.31054 52.6881 7.28659C52.0203 7.1851 51.3444 7.14282 50.6684 7.16025L47.7331 7.18429L47.0698 10.1095Z" fill="white"/>
<path d="M66.7685 13.682C66.5703 14.6249 66.1455 15.5068 65.5306 16.2518C64.9303 16.9891 64.1601 17.571 63.2863 17.9476C62.3491 18.3557 61.3359 18.5589 60.3153 18.5435C59.3754 18.5768 58.4437 18.3706 57.6083 17.9444C56.9144 17.5806 56.3801 16.9748 56.1068 16.242C55.8244 15.4158 55.7911 14.5241 56.011 13.6769L56.7846 10.1852C56.9886 9.24427 57.4128 8.36368 58.0226 7.61546C58.6249 6.88024 59.3945 6.29873 60.2669 5.91964C61.2049 5.51441 62.2175 5.31132 63.2378 5.32374C64.1774 5.29397 65.1082 5.49998 65.9448 5.92284C66.6372 6.28554 67.1712 6.88886 67.4463 7.61904C67.7285 8.44738 67.7618 9.34095 67.5422 10.1903L66.7685 13.682ZM62.8632 6.99181C61.8404 6.94775 60.8297 7.23978 59.9865 7.82303C59.2198 8.42512 58.703 9.28829 58.5362 10.2454L57.7933 13.6188C57.5228 14.4462 57.6723 15.3511 58.1941 16.0447C58.6883 16.5998 59.5244 16.8787 60.6899 16.8754C61.7136 16.927 62.7267 16.6343 63.5666 16.0442C64.339 15.4526 64.8665 14.5988 65.0482 13.6464L65.7848 10.273C66.039 9.45144 65.9053 8.56106 65.4215 7.85307C64.921 7.29802 64.0725 7.01919 62.8758 7.01656L62.8632 6.99181Z" fill="#131614"/>
<path d="M66.7685 13.682C66.5703 14.6249 66.1455 15.5068 65.5306 16.2518C64.9303 16.9891 64.1601 17.571 63.2863 17.9476C62.3491 18.3557 61.3359 18.5589 60.3153 18.5435C59.3754 18.5768 58.4437 18.3706 57.6083 17.9444C56.9144 17.5806 56.3801 16.9748 56.1068 16.242C55.8244 15.4158 55.7911 14.5241 56.011 13.6769L56.7846 10.1852C56.9886 9.24427 57.4128 8.36368 58.0226 7.61546C58.6249 6.88024 59.3945 6.29873 60.2669 5.91964C61.2049 5.51441 62.2175 5.31132 63.2378 5.32374C64.1774 5.29397 65.1082 5.49998 65.9448 5.92284C66.6372 6.28554 67.1712 6.88886 67.4463 7.61904C67.7285 8.44738 67.7618 9.34095 67.5422 10.1903L66.7685 13.682ZM62.8632 6.99181C61.8404 6.94775 60.8297 7.23978 59.9865 7.82303C59.2198 8.42512 58.703 9.28829 58.5362 10.2454L57.7933 13.6188C57.5228 14.4462 57.6723 15.3511 58.1941 16.0447C58.6883 16.5998 59.5244 16.8787 60.6899 16.8754C61.7136 16.927 62.7267 16.6343 63.5666 16.0442C64.339 15.4526 64.8665 14.5988 65.0482 13.6464L65.7848 10.273C66.039 9.45144 65.9053 8.56106 65.4215 7.85307C64.921 7.28145 64.0724 6.99434 62.8757 6.99171L62.8632 6.99181Z" fill="#131614"/>
<path d="M60.4281 18.6997L60.3533 18.7003C59.3871 18.7386 58.428 18.5327 57.5653 18.1019C56.8409 17.7218 56.2824 17.09 55.995 16.3255C55.7062 15.4685 55.6728 14.5453 55.8989 13.6673L56.66 10.1757C56.8545 9.21103 57.2791 8.30613 57.8978 7.53759C58.5143 6.78277 59.3032 6.18605 60.198 5.79783C61.156 5.38479 62.1895 5.17733 63.2313 5.18899C64.1953 5.15287 65.1518 5.35866 66.013 5.78748C66.7378 6.16711 67.2965 6.79912 67.5834 7.56387C67.8771 8.41972 67.9126 9.34377 67.6857 10.2221L66.9246 13.7198C66.7234 14.6805 66.2995 15.5819 65.6868 16.3517C65.0703 17.1066 64.2814 17.7033 63.3866 18.0915C62.4525 18.4968 61.4449 18.7039 60.4281 18.6997ZM63.1699 5.48149C62.196 5.47784 61.2309 5.67616 60.336 6.06384C59.4859 6.43359 58.7356 6.99991 58.1477 7.71571C57.5634 8.44445 57.1585 9.29901 56.9656 10.2105L56.1733 13.7209C55.9641 14.5417 55.9951 15.4039 56.2626 16.2053C56.5298 16.8985 57.0382 17.4719 57.6953 17.8213C58.5075 18.2377 59.4125 18.4439 60.3274 18.421C61.3263 18.4392 62.3184 18.2425 63.2362 17.8442C64.1008 17.4612 64.8587 16.8725 65.443 16.1301C66.0323 15.4037 66.4397 14.5484 66.6313 13.6353L67.3801 10.1625C67.5956 9.34272 67.5667 8.4793 67.297 7.67805C67.0358 6.98122 66.5258 6.40596 65.8644 6.06205C65.0502 5.6449 64.143 5.43871 63.226 5.46239L63.1699 5.48149ZM60.7778 17.0319L60.7155 17.0324C59.7512 17.126 58.7949 16.8037 58.0886 16.1468C57.5343 15.4182 57.3729 14.4641 57.6562 13.5907L58.3929 10.2174C58.5756 9.23046 59.1135 8.3423 59.9053 7.71995C60.7543 7.11908 61.7745 6.80774 62.8129 6.83257L62.8753 6.83206C64.1218 6.82185 65.0078 7.13144 65.5396 7.71729C66.0564 8.46476 66.204 9.40731 65.9408 10.2799L65.1979 13.647C65.0138 14.6396 64.4657 15.53 63.6605 16.1447C62.82 16.7436 61.8082 17.0549 60.7778 17.0319ZM62.814 7.14941C61.8456 7.11537 60.8907 7.39571 60.093 7.94828C59.3578 8.53148 58.8616 9.36234 58.6985 10.2833L57.9618 13.6566C57.698 14.4327 57.8338 15.2866 58.3247 15.9399C58.9753 16.5263 59.8455 16.8102 60.7207 16.7217C61.7081 16.7689 62.685 16.4877 63.4977 15.9224C64.2367 15.3441 64.7357 14.5144 64.8985 13.5935L65.6352 10.2202C65.8752 9.44153 65.751 8.5982 65.2972 7.9243C64.8343 7.41244 64.0169 7.15198 62.8763 7.1489L62.814 7.14941Z" fill="white"/>
<path d="M73.6814 18.4075C72.6294 18.4439 71.5786 18.3227 70.5642 18.048C69.9393 17.8892 69.4193 17.4609 69.1455 16.8796C68.9187 16.1488 68.9161 15.3661 69.138 14.6316L70.2794 9.29387C70.4244 8.48761 70.757 7.72555 71.2504 7.06887C71.7405 6.49943 72.3907 6.08944 73.1161 5.89228C74.0996 5.61871 75.1183 5.49521 76.1375 5.52597L79.4467 5.49887C80.0755 5.42926 80.6999 5.65344 81.1376 6.10604C81.4707 6.6677 81.5413 7.34724 81.3308 7.96753C81.1671 8.70582 80.7944 9.07528 80.2127 9.0759C79.9804 9.10142 79.7539 8.9954 79.626 8.80124C79.5073 8.56018 79.4863 8.28247 79.5673 8.02545C79.6556 7.8121 79.6548 7.57286 79.5651 7.36097C79.4775 7.2499 79.2778 7.18943 78.9413 7.19219L75.7817 7.21807C75.0662 7.19617 74.3501 7.24782 73.6446 7.37219C73.2333 7.45308 72.8632 7.67607 72.5997 8.00177C72.3202 8.41927 72.1328 8.89074 72.0496 9.38495L70.9017 14.6172C70.7675 15.0701 70.7519 15.5492 70.8565 16.0086C71.0232 16.3516 71.3562 16.5837 71.7373 16.6224C72.509 16.7516 73.2919 16.8055 74.0749 16.7834L76.8606 16.7606C77.1005 16.7782 77.3403 16.7197 77.5456 16.5935C77.7156 16.4083 77.8237 16.1751 77.8549 15.9265C77.9063 15.6353 78.0444 15.3658 78.2512 15.1531C78.4407 14.9686 78.6966 14.868 78.9607 14.8741C79.5403 14.8693 79.7473 15.2651 79.5877 16.0054C79.4729 16.7075 79.1237 17.3515 78.5967 17.8331C78.0344 18.2539 77.3421 18.4641 76.6418 18.4267L73.6814 18.4075Z" fill="#131614"/>
<path d="M73.6814 18.4075C72.6294 18.4439 71.5786 18.3227 70.5642 18.048C69.9393 17.8892 69.4193 17.4609 69.1455 16.8796C68.9187 16.1488 68.9161 15.3661 69.138 14.6316L70.2794 9.29387C70.4244 8.48761 70.757 7.72555 71.2504 7.06887C71.7405 6.49943 72.3907 6.08944 73.1161 5.89228C74.0996 5.61871 75.1183 5.49521 76.1375 5.52597L79.4467 5.49887C80.0755 5.42926 80.6999 5.65344 81.1376 6.10604C81.4707 6.6677 81.5413 7.34724 81.3308 7.96753C81.1671 8.70582 80.7944 9.07528 80.2127 9.0759C79.9804 9.10142 79.7539 8.9954 79.626 8.80124C79.5073 8.56018 79.4863 8.28247 79.5673 8.02545C79.6556 7.8121 79.6548 7.57286 79.5651 7.36097C79.4775 7.2499 79.2778 7.18943 78.9413 7.19219L75.7817 7.21807C75.0662 7.19617 74.3501 7.24782 73.6446 7.37219C73.2333 7.45308 72.8632 7.67607 72.5997 8.00177C72.3202 8.41927 72.1328 8.89074 72.0496 9.38495L70.9017 14.6172C70.7675 15.0701 70.7519 15.5492 70.8565 16.0086C71.0232 16.3516 71.3562 16.5837 71.7373 16.6224C72.509 16.7516 73.2919 16.8055 74.0749 16.7834L76.8606 16.7606C77.1005 16.7782 77.3403 16.7197 77.5456 16.5935C77.7156 16.4083 77.8237 16.1751 77.8549 15.9265C77.9063 15.6353 78.0444 15.3658 78.2512 15.1531C78.4407 14.9686 78.6966 14.868 78.9607 14.8741C79.5403 14.8693 79.7473 15.2651 79.5877 16.0054C79.4729 16.7075 79.1237 17.3515 78.5967 17.8331C78.0344 18.2539 77.3421 18.4641 76.6418 18.4267L73.6814 18.4075Z" fill="#131614"/>
<path d="M76.6536 18.5564L76.61 18.5568L73.6747 18.5808C72.6078 18.618 71.5422 18.4948 70.5138 18.2154C69.8524 18.0466 69.2997 17.5972 69.0015 16.9858C68.7549 16.23 68.7413 15.4169 68.9625 14.6511L70.1225 9.2946C70.2744 8.46482 70.6198 7.68129 71.1307 7.0072C71.6277 6.40516 72.2955 5.96662 73.046 5.74948C74.0453 5.46943 75.0811 5.34366 76.1172 5.37655L79.4202 5.34951C80.096 5.27649 80.7662 5.51856 81.2359 6.00534C81.5958 6.59784 81.6757 7.31919 81.4544 7.97839C81.2335 8.99867 80.6297 9.22718 80.2122 9.2306C79.9243 9.25709 79.6468 9.12011 79.4943 8.87629C79.3506 8.60546 79.3226 8.28787 79.4166 7.99508C79.5025 7.59692 79.4148 7.47965 79.4148 7.45481C79.4147 7.42997 79.3022 7.34394 78.9283 7.34701L75.7686 7.37288C75.0656 7.35055 74.3618 7.4021 73.6689 7.5267C73.2946 7.58946 72.9546 7.78398 72.711 8.07483C72.4423 8.47028 72.263 8.9189 72.1856 9.38949L71.044 14.6278C70.9115 15.0489 70.8936 15.497 70.9922 15.9262C71.0803 16.1676 71.3363 16.3332 71.7605 16.4291C72.5203 16.5522 73.2904 16.6041 74.0606 16.5842L76.8464 16.5614C77.0509 16.5845 77.2576 16.5368 77.4317 16.4261C77.5775 16.2648 77.6685 16.0619 77.6915 15.8465C77.7526 15.5276 77.9053 15.2329 78.1312 14.9983C78.3456 14.7888 78.6345 14.6724 78.9341 14.675C79.1881 14.6637 79.4332 14.7665 79.6019 14.9552C79.7891 15.2671 79.8291 15.646 79.7113 15.9914C79.5917 16.7341 79.22 17.4146 78.6582 17.919C78.0848 18.3593 77.3751 18.5849 76.6536 18.5564ZM75.9563 5.70701C75.0039 5.69079 74.0534 5.81152 73.1343 6.06547C72.4489 6.25802 71.836 6.65017 71.3744 7.19151C70.8953 7.82806 70.5713 8.56644 70.428 9.34799L69.2679 14.6672C69.0563 15.3693 69.0588 16.1173 69.2751 16.8159C69.5329 17.3553 70.0182 17.7517 70.5999 17.898C71.5977 18.1705 72.632 18.2898 73.6674 18.2517L76.5964 18.2277C77.2643 18.2601 77.924 18.0616 78.4642 17.6659C78.9655 17.2107 79.2957 16.5986 79.3995 15.9318C79.4934 15.6749 79.4743 15.3909 79.347 15.1498C79.239 15.0324 79.0823 14.9718 78.9226 14.9856C78.7043 14.9821 78.4933 15.0667 78.3376 15.2202C78.1374 15.4118 78.0067 15.6642 77.9661 15.9374C77.9263 16.2203 77.7985 16.4841 77.6009 16.6918C77.3743 16.8412 77.1055 16.9132 76.835 16.8968L74.0493 16.9196C73.256 16.9411 72.4629 16.8873 71.6805 16.7589C71.2502 16.7158 70.8743 16.4532 70.6873 16.0653C70.5671 15.5786 70.5804 15.068 70.726 14.5869L71.8677 9.34862C71.9528 8.83256 72.1512 8.34107 72.4487 7.90931C72.7287 7.55253 73.1288 7.30869 73.5744 7.22318C74.2902 7.09652 75.0167 7.04271 75.7427 7.06258L78.9086 7.03666C79.1748 6.9987 79.4434 7.08333 79.6385 7.26667C79.7664 7.51019 79.7832 7.79717 79.6847 8.05498C79.6155 8.27462 79.6319 8.51178 79.7306 8.7191C79.8293 8.86615 80.0035 8.94417 80.18 8.92036C80.6723 8.91632 80.9891 8.59701 81.1302 7.93136C81.3296 7.36308 81.2706 6.73759 80.9687 6.21867C80.561 5.80461 79.9818 5.60493 79.4026 5.67879L76.0934 5.70589L75.9563 5.70701Z" fill="white"/>
<path d="M86.7784 18.453C85.7264 18.4894 84.6756 18.3682 83.6612 18.0935C83.0363 17.9347 82.5163 17.5065 82.2426 16.9252C82.0164 16.1943 82.0138 15.4118 82.235 14.6772L83.3952 9.36425C83.5394 8.55663 83.8744 7.79391 84.3724 7.13923C84.8625 6.56981 85.5127 6.15982 86.2381 5.96267C87.2237 5.68912 88.2445 5.56561 89.2657 5.59631L92.5687 5.56927C93.1976 5.49869 93.8224 5.72302 94.2596 6.17643C94.596 6.73698 94.6667 7.41797 94.4528 8.03788C94.2891 8.77616 93.9164 9.14561 93.3347 9.14623C93.1024 9.17175 92.8759 9.06573 92.748 8.87158C92.6293 8.63052 92.6083 8.35281 92.6893 8.0958C92.7776 7.88245 92.7768 7.64322 92.6871 7.43133C92.5995 7.32027 92.3998 7.2598 92.0633 7.26256L88.8975 7.28848C88.1841 7.26625 87.47 7.31788 86.7666 7.44255C86.353 7.52208 85.9805 7.74521 85.7154 8.07217C85.436 8.48966 85.2485 8.96113 85.1654 9.45532L84.0175 14.6936C83.8812 15.1443 83.8678 15.6224 83.9785 16.0788C84.1403 16.4233 84.4726 16.6566 84.8531 16.6927C85.6249 16.8212 86.4077 16.8751 87.1906 16.8536L89.9826 16.8308C90.2215 16.8502 90.4605 16.7892 90.6613 16.6575C90.8353 16.4775 90.9443 16.2448 90.9707 15.9967C91.0242 15.7049 91.1645 15.4355 91.3732 15.2234C91.5604 15.0392 91.8142 14.9385 92.0765 14.9444C92.6561 14.9396 92.8631 15.3354 92.7035 16.0757C92.5631 16.7675 92.1944 17.3936 91.6562 17.8541C91.0939 18.2749 90.4016 18.485 89.7013 18.4477L86.7784 18.453Z" fill="#131614"/>
<path d="M86.7784 18.453C85.7264 18.4894 84.6756 18.3682 83.6612 18.0935C83.0363 17.9347 82.5163 17.5065 82.2426 16.9252C82.0164 16.1943 82.0138 15.4118 82.235 14.6772L83.3952 9.36425C83.5394 8.55663 83.8744 7.79391 84.3724 7.13923C84.8625 6.56981 85.5127 6.15982 86.2381 5.96267C87.2237 5.68912 88.2445 5.56561 89.2657 5.59631L92.5687 5.56927C93.1976 5.49869 93.8224 5.72302 94.2596 6.17643C94.596 6.73698 94.6667 7.41797 94.4528 8.03788C94.2891 8.77616 93.9164 9.14561 93.3347 9.14623C93.1024 9.17175 92.8759 9.06573 92.748 8.87158C92.6293 8.63052 92.6083 8.35281 92.6893 8.0958C92.7776 7.88245 92.7768 7.64322 92.6871 7.43133C92.5995 7.32027 92.3998 7.2598 92.0633 7.26256L88.8975 7.28848C88.1841 7.26625 87.47 7.31788 86.7666 7.44255C86.353 7.52208 85.9805 7.74521 85.7154 8.07217C85.436 8.48966 85.2485 8.96113 85.1654 9.45532L84.0175 14.6936C83.8812 15.1443 83.8678 15.6224 83.9785 16.0788C84.1403 16.4233 84.4726 16.6566 84.8531 16.6927C85.6249 16.8212 86.4077 16.8751 87.1906 16.8536L89.9826 16.8308C90.2215 16.8502 90.4605 16.7892 90.6613 16.6575C90.8353 16.4775 90.9443 16.2448 90.9707 15.9967C91.0242 15.7049 91.1645 15.4355 91.3732 15.2234C91.5604 15.0392 91.8142 14.9385 92.0765 14.9444C92.6561 14.9396 92.8631 15.3354 92.7035 16.0757C92.5631 16.7675 92.1944 17.3936 91.6562 17.8541C91.0939 18.2749 90.4016 18.485 89.7013 18.4477L86.7784 18.453Z" fill="#131614"/>
<path d="M89.7529 18.6048L89.7093 18.6051L86.7802 18.6291C85.7113 18.6667 84.6436 18.5435 83.6131 18.2638C82.9517 18.0949 82.3991 17.6456 82.1008 17.0342C81.8543 16.2784 81.8407 15.4653 82.0619 14.6995L83.2282 9.38033C83.3783 8.55113 83.7215 7.76767 84.2302 7.09302C84.7328 6.50386 85.3997 6.07675 86.1456 5.86636C87.1462 5.59314 88.1809 5.4675 89.2167 5.49345L92.5259 5.46635C93.1997 5.39438 93.8675 5.63645 94.3354 6.12222C94.6953 6.71471 94.7751 7.43605 94.5539 8.09524C94.3329 9.1093 93.7541 9.34381 93.3116 9.34744C93.0238 9.37393 92.7463 9.23695 92.5938 8.99313C92.4559 8.72058 92.4281 8.40534 92.516 8.11193C92.602 7.71378 92.5143 7.59651 92.5142 7.57167C92.5141 7.54683 92.4017 7.46702 92.0278 7.46387L88.8682 7.48974C88.1652 7.47034 87.4617 7.52187 86.7685 7.64356C86.3941 7.70632 86.0542 7.90083 85.8106 8.19168C85.5419 8.58712 85.3626 9.03574 85.2852 9.50632L84.1435 14.7446C84.011 15.1657 83.9932 15.6138 84.0918 16.0429C84.1799 16.2844 84.4422 16.4499 84.86 16.5458C85.6198 16.6692 86.3899 16.7211 87.1602 16.7009L89.9521 16.678C90.1547 16.7008 90.3593 16.653 90.5312 16.5429C90.6762 16.3835 90.7671 16.1828 90.7911 15.9694C90.8506 15.6482 91.0035 15.3511 91.2307 15.115C91.4501 14.9053 91.7428 14.7892 92.046 14.7916C92.3002 14.7794 92.5456 14.8824 92.7138 15.0718C92.9011 15.3838 92.9411 15.7626 92.8232 16.108C92.7019 16.8438 92.3353 17.5186 91.7826 18.023C91.1933 18.4459 90.4756 18.6516 89.7529 18.6048ZM89.0867 5.74913C88.1322 5.73171 87.1796 5.85247 86.2585 6.10763C85.5708 6.29871 84.9554 6.69103 84.4924 7.2337C84.0067 7.86853 83.6762 8.60708 83.5274 9.3903L82.3673 14.7094C82.1556 15.4115 82.1581 16.1595 82.3745 16.8581C82.6393 17.3919 83.1294 17.7793 83.7117 17.9153C84.7094 18.1877 85.7437 18.307 86.779 18.269L89.7143 18.2449C91.1047 18.3751 92.3466 17.365 92.4987 15.9803C92.5959 15.7238 92.5767 15.4384 92.4462 15.1982C92.3383 15.0808 92.1815 15.0202 92.0219 15.034C91.79 15.0151 91.5613 15.1013 91.3995 15.2689C91.2143 15.459 91.0913 15.7004 91.0466 15.9611C91.0097 16.2449 90.8816 16.5096 90.6814 16.7155C90.4603 16.8665 90.1947 16.9388 89.928 16.9204L87.1423 16.9432C86.3487 16.9673 85.5551 16.9113 84.7735 16.7763C84.3446 16.7344 83.969 16.4744 83.7803 16.0889C83.6601 15.6022 83.6735 15.0917 83.819 14.6106L84.9607 9.37235C85.05 8.85747 85.248 8.36686 85.5417 7.93306C85.8364 7.59738 86.2391 7.3744 86.6801 7.30273C87.3979 7.17533 88.1265 7.12151 88.8545 7.14209L92.0141 7.11622C92.2803 7.08008 92.5481 7.16447 92.7441 7.34622C92.8717 7.58949 92.8907 7.87547 92.7966 8.13447C92.7228 8.35303 92.737 8.59115 92.8362 8.79863C92.9368 8.94341 93.1096 9.02078 93.2856 8.99988C93.7841 8.9958 94.0946 8.67654 94.2358 8.01091C94.4351 7.44263 94.3762 6.81715 94.0742 6.29824C93.6666 5.88419 93.0873 5.68451 92.5082 5.75837L89.199 5.78547L89.0867 5.74913Z" fill="white"/>
<path d="M94.9392 17.6768L97.3944 6.4799C97.4357 5.91802 97.917 5.48806 98.4817 5.50855C99.0613 5.50381 99.2806 5.85594 99.1084 6.54038L97.1136 15.6658L106.497 5.97071C106.754 5.67735 107.116 5.49774 107.505 5.47192C108.06 5.46738 108.26 5.80104 108.131 6.44787L105.676 17.6448C105.632 18.1999 105.153 18.6217 104.595 18.5975C104.016 18.6022 103.79 18.2998 103.919 17.7027L105.932 8.49634L96.6605 18.0726C96.5074 18.2485 96.3269 18.3989 96.126 18.5178C95.9579 18.6007 95.7711 18.6386 95.5842 18.6278C95.0172 18.6324 94.798 18.3114 94.9579 17.6767" fill="#131614"/>
<path d="M94.9368 17.6767L97.392 6.47983C97.4333 5.91794 97.9146 5.48799 98.4793 5.50847C99.0589 5.50373 99.2781 5.85587 99.1059 6.5403L97.1112 15.6657L106.495 5.97063C106.751 5.67727 107.114 5.49767 107.503 5.47184C108.057 5.4673 108.258 5.80096 108.129 6.44779L105.674 17.6447C105.629 18.1998 105.151 18.6216 104.593 18.5974C104.013 18.6021 103.788 18.2997 103.917 17.7026L105.93 8.49625L96.6581 18.0725C96.505 18.2484 96.3245 18.3988 96.1236 18.5177C95.9555 18.6006 95.7687 18.6385 95.5818 18.6277C95.0148 18.6261 94.7956 18.3113 94.9368 17.6767Z" fill="#131614"/>
<path d="M104.604 18.7923C104.335 18.8142 104.071 18.7136 103.886 18.5187C103.727 18.2817 103.685 17.9853 103.771 17.7124L105.68 9.00375L96.7746 18.1858C96.6083 18.374 96.4133 18.5348 96.1967 18.6624C96.0014 18.7513 95.7881 18.7935 95.5739 18.7855C95.3161 18.8111 95.0618 18.7142 94.8876 18.5241C94.7211 18.2645 94.679 17.9443 94.7725 17.6495L97.2277 6.45263C97.2848 5.81725 97.8309 5.3352 98.4704 5.35582C98.7287 5.33561 98.9816 5.43418 99.1568 5.62341C99.3372 5.90778 99.3795 6.25845 99.2721 6.5787L97.394 15.1692L106.386 5.90572C106.67 5.58193 107.071 5.38408 107.5 5.35639C107.75 5.3378 107.993 5.43421 108.162 5.61798C108.333 5.88523 108.373 6.21598 108.27 6.51744L105.815 17.7143C105.75 18.3301 105.225 18.7972 104.604 18.7923ZM106.2 7.99979L104.096 17.7905C104.032 17.9738 104.051 18.1751 104.147 18.3427C104.276 18.4591 104.448 18.5162 104.621 18.5003C105.126 18.4961 105.418 18.233 105.541 17.6669L107.996 6.47001C108.065 6.26507 108.049 6.0413 107.95 5.84945C107.836 5.74337 107.682 5.6905 107.526 5.7039C107.184 5.73487 106.867 5.89793 106.643 6.15821L96.8925 16.173L99.004 6.51881C99.0879 6.28997 99.0689 6.03667 98.9518 5.82379C98.8347 5.70959 98.6722 5.65396 98.5088 5.67218C98.0041 5.67632 97.7121 5.94571 97.5894 6.52418L95.1342 17.7211C95.0637 17.9265 95.0825 18.1515 95.1861 18.3416C95.3043 18.4535 95.4667 18.5068 95.629 18.487C95.7917 18.4959 95.9543 18.4647 96.1023 18.3962C96.2871 18.2853 96.4529 18.1456 96.5932 17.9823L106.2 7.99979Z" fill="white"/>
<path d="M116.955 17.7634L118.017 12.8999L115.082 12.9239C114.568 12.8955 114.055 13.0025 113.594 13.2341C113.195 13.4826 112.879 13.8441 112.688 14.2721L111.766 16.1421C111.394 16.8772 110.859 17.5186 110.202 18.0173C109.645 18.4595 108.958 18.7073 108.247 18.7224C107.525 18.7283 107.225 18.4452 107.347 17.8855C107.47 17.3257 107.887 17.074 108.591 17.0744C108.885 17.0542 109.162 16.931 109.375 16.7266C109.627 16.535 109.838 16.2946 109.996 16.02L111.017 14.0002C111.33 13.4096 111.764 12.8902 112.289 12.4749C111.016 11.877 110.543 10.8317 110.87 9.33901C111.08 8.20501 111.766 7.21214 112.756 6.6106C113.962 5.94407 115.328 5.62138 116.703 5.6781L120.529 5.68402C121.083 5.67948 121.29 6.01924 121.155 6.69703L118.731 17.7612C118.683 18.2966 118.219 18.7008 117.681 18.6762C117.058 18.6813 116.833 18.3728 116.968 17.7633L116.955 17.7634ZM119.238 7.34596L116.353 7.36958C115.465 7.32022 114.576 7.48508 113.763 7.8502C113.175 8.1597 112.763 8.72247 112.646 9.37414C112.37 10.618 113.326 11.2621 115.5 11.2567L118.391 11.233L119.238 7.34596Z" fill="#131614"/>
<path d="M116.955 17.7634L118.017 12.8999L115.082 12.9239C114.568 12.8955 114.055 13.0025 113.594 13.2341C113.195 13.4826 112.879 13.8441 112.688 14.2721L111.766 16.1421C111.394 16.8772 110.859 17.5186 110.202 18.0173C109.645 18.4595 108.958 18.7073 108.247 18.7224C107.525 18.7283 107.225 18.4452 107.347 17.8855C107.47 17.3257 107.887 17.074 108.591 17.0744C108.885 17.0542 109.162 16.931 109.375 16.7266C109.627 16.535 109.838 16.2946 109.996 16.02L111.017 14.0002C111.33 13.4096 111.764 12.8902 112.289 12.4749C111.016 11.877 110.543 10.8317 110.87 9.33901C111.08 8.20501 111.766 7.21214 112.756 6.6106C113.962 5.94407 115.328 5.62138 116.703 5.6781L120.529 5.68402C121.083 5.67948 121.29 6.01924 121.155 6.69703L118.731 17.7612C118.683 18.2966 118.219 18.7008 117.681 18.6762C117.058 18.6751 116.82 18.3729 116.955 17.7634ZM119.226 7.34607L116.341 7.36969C115.452 7.32032 114.564 7.48518 113.75 7.8503C113.162 8.1598 112.75 8.72257 112.634 9.37424C112.358 10.6181 113.313 11.2622 115.488 11.2568L118.379 11.2331L119.226 7.34607Z" fill="#131614"/>
<path d="M117.683 18.8358C117.4 18.8617 117.122 18.7563 116.928 18.5502C116.769 18.3087 116.727 18.0084 116.813 17.7316L117.838 13.0604L115.097 13.0829C114.609 13.0619 114.123 13.1618 113.683 13.3738C113.309 13.6066 113.015 13.9469 112.839 14.3493L111.917 16.2195C111.529 16.9585 110.977 17.6001 110.303 18.0953C109.718 18.5562 108.999 18.815 108.256 18.8323C107.91 18.8713 107.567 18.7532 107.32 18.5109C107.162 18.3119 107.112 18.0478 107.187 17.8042C107.279 17.375 107.601 16.8819 108.598 16.8675C108.851 16.8447 109.088 16.7352 109.27 16.5578C109.493 16.3869 109.681 16.1745 109.822 15.9324L110.85 13.9124C111.134 13.3718 111.517 12.8885 111.979 12.4875C110.799 11.8391 110.366 10.7685 110.691 9.28817C110.922 8.12751 111.637 7.11704 112.657 6.5092C113.855 5.8374 115.214 5.50623 116.586 5.55194L116.685 5.55113L120.511 5.55706C120.748 5.54305 120.977 5.63715 121.135 5.81271C121.314 6.0933 121.354 6.44042 121.244 6.75554L118.826 17.8268C118.75 18.3993 118.262 18.8301 117.683 18.8358ZM117.106 17.7975C117.042 17.9828 117.061 18.186 117.158 18.3558C117.293 18.487 117.482 18.5494 117.669 18.5255C117.897 18.5371 118.12 18.4576 118.289 18.3046C118.459 18.1516 118.56 17.9379 118.57 17.711L120.988 6.63967C121.069 6.41531 121.053 6.16771 120.942 5.95709C120.833 5.85164 120.682 5.80051 120.53 5.81766L116.705 5.81173C115.358 5.75174 114.018 6.06806 112.839 6.72502C111.889 7.28654 111.225 8.22565 111.015 9.30414C110.702 10.7285 111.135 11.6997 112.346 12.261L112.571 12.3709L112.372 12.5278C111.86 12.9284 111.437 13.431 111.131 14.0032L110.109 16.0232C109.954 16.3112 109.743 16.5661 109.489 16.7733C109.251 17.0094 108.933 17.1473 108.599 17.1593C107.976 17.1644 107.597 17.3848 107.492 17.8513C107.442 17.9994 107.463 18.1621 107.55 18.2917C107.741 18.4548 107.992 18.5294 108.242 18.4971C108.919 18.4756 109.573 18.2397 110.109 17.8237C110.749 17.3409 111.269 16.7185 111.63 16.0045L112.552 14.1344C112.754 13.6782 113.089 13.2926 113.514 13.0275C113.989 12.7898 114.516 12.6765 115.045 12.6984L115.083 12.698L118.198 12.7036L117.106 17.7975ZM118.505 11.3972L115.49 11.4219C114.057 11.4337 113.152 11.1617 112.721 10.6251C112.454 10.2711 112.367 9.81337 112.486 9.38523C112.611 8.68798 113.05 8.08488 113.677 7.7488C114.514 7.37535 115.428 7.20609 116.342 7.25512L119.426 7.22987L118.505 11.3972ZM116.237 7.50433C115.407 7.4669 114.58 7.62469 113.821 7.96493C113.265 8.24896 112.874 8.7766 112.766 9.38915C112.659 9.73483 112.723 10.11 112.938 10.3998C113.301 10.85 114.155 11.0852 115.464 11.0807L118.23 11.058L119.01 7.48163L116.312 7.50372L116.237 7.50433Z" fill="white"/>
<path d="M129.71 13.6001C129.602 13.4593 129.569 13.2761 129.621 13.1068C129.656 12.9059 129.767 12.7247 129.93 12.5982C130.096 12.4799 130.297 12.4183 130.502 12.4229L138.204 12.4283C138.391 12.4083 138.576 12.4718 138.709 12.6011C138.812 12.7488 138.838 12.9364 138.779 13.1067C138.743 13.3048 138.638 13.4847 138.482 13.6153C138.315 13.7371 138.111 13.799 137.904 13.7907L130.196 13.7853C130.013 13.802 129.833 13.7334 129.71 13.6001Z" fill="#131614"/>
<path d="M129.71 13.6001C129.602 13.4593 129.569 13.2761 129.621 13.1068C129.656 12.9059 129.767 12.7247 129.93 12.5982C130.096 12.4799 130.297 12.4183 130.502 12.4229L138.204 12.4283C138.391 12.4083 138.576 12.4718 138.709 12.6011C138.812 12.7488 138.838 12.9364 138.779 13.1067C138.743 13.3048 138.638 13.4847 138.482 13.6153C138.315 13.7371 138.111 13.799 137.904 13.7907L130.196 13.7853C130.013 13.802 129.833 13.7334 129.71 13.6001Z" fill="#131614"/>
<path d="M137.919 13.9485L130.198 13.9372C129.963 13.9597 129.731 13.8707 129.575 13.6975C129.44 13.5239 129.396 13.2982 129.455 13.0868C129.494 12.8446 129.624 12.6253 129.82 12.4722C130.014 12.337 130.247 12.2646 130.485 12.265L138.193 12.2703C138.426 12.2346 138.66 12.3221 138.809 12.5005C138.957 12.6789 138.999 12.9217 138.918 13.1392C138.874 13.3784 138.747 13.5957 138.559 13.7538C138.373 13.8858 138.148 13.9542 137.919 13.9485ZM130.492 12.5769C130.325 12.5751 130.162 12.6257 130.026 12.7213C129.893 12.8256 129.805 12.9747 129.778 13.1393C129.737 13.2629 129.756 13.3982 129.829 13.5059C129.926 13.6047 130.064 13.6534 130.203 13.6374L137.906 13.6428C138.079 13.6495 138.25 13.5985 138.39 13.4982C138.517 13.3901 138.602 13.2425 138.632 13.0803C138.676 12.9536 138.659 12.8142 138.587 12.7014C138.485 12.6076 138.346 12.5638 138.207 12.5822L130.504 12.5768L130.492 12.5769Z" fill="#131614"/>
<path d="M54.907 24.2181L50.3046 45.2071L136.834 44.9573L141.43 23.9684L54.907 24.2181Z" fill="#3B69A3"/>
<path d="M62.3858 41.6911C61.3336 41.7307 60.2823 41.6095 59.2685 41.3316C58.6449 41.1705 58.1257 40.743 57.8499 40.1633C57.6239 39.4345 57.6213 38.654 57.8424 37.9215L59.0025 32.6023C59.1494 31.7955 59.4841 31.0333 59.9797 30.3772C60.4616 29.8131 61.1001 29.4036 61.8143 29.2009C62.8005 28.9304 63.8208 28.8069 64.8419 28.8345L68.1511 28.8074C68.7781 28.7379 69.4005 28.9623 69.8358 29.4147C70.1773 29.9735 70.2482 30.6568 70.029 31.2761C69.8632 32.0165 69.4968 32.3859 68.9109 32.3845C68.6808 32.4076 68.4573 32.3019 68.3304 32.1098C68.2128 31.8687 68.1896 31.5922 68.2655 31.3341C68.3538 31.1207 68.353 30.8815 68.2633 30.6696C68.1819 30.5585 67.9761 30.5043 67.6395 30.5008L64.4799 30.5267C63.7642 30.5059 63.048 30.5596 62.3428 30.687C61.9335 30.7583 61.5616 30.9701 61.2915 31.2856C61.0121 31.7031 60.8246 32.1746 60.7415 32.6688L59.5998 37.9071C59.4591 38.3568 59.4434 38.8357 59.5546 39.2923C59.7175 39.6386 60.0526 39.8722 60.4354 39.9061C61.2047 40.0382 61.9858 40.0922 62.7668 40.0671L65.5587 40.0443C65.7969 40.0651 66.0357 40.0063 66.2374 39.8773C66.4101 39.6931 66.5205 39.4597 66.5531 39.2102C66.6033 38.9186 66.7416 38.6489 66.9493 38.4369C67.1384 38.2557 67.391 38.1555 67.6526 38.1579C68.2322 38.1531 68.4454 38.5488 68.2796 39.2892C68.1686 39.9926 67.8188 40.6378 67.2886 41.1169C66.7282 41.5367 66.0382 41.7468 65.3399 41.7104L62.3858 41.6911Z" fill="white"/>
<path d="M65.3644 41.8599L65.3145 41.8603L62.3855 41.8843C61.3166 41.9213 60.249 41.7982 59.2184 41.519C58.5581 41.3478 58.0064 40.8992 57.7061 40.2893C57.4625 39.533 57.449 38.7208 57.6671 37.9546L58.8335 32.6416C58.9841 31.8115 59.3296 31.0276 59.8417 30.3543C60.3368 29.753 61.0024 29.3145 61.7507 29.0966C62.7515 28.8239 63.7861 28.6983 64.8219 28.7237L68.1311 28.6966C68.806 28.6252 69.4745 28.8698 69.9406 29.3587C70.3002 29.949 70.3801 30.6683 70.1591 31.3255C69.9381 32.3395 69.3593 32.5741 68.9168 32.5777C68.6298 32.5999 68.3544 32.464 68.199 32.2234C68.0637 31.9479 68.036 31.6317 68.1212 31.336C68.2071 30.9378 68.1195 30.8205 68.1194 30.7957C68.1193 30.7709 68.0069 30.691 67.6392 30.6878L64.4733 30.7138C63.7704 30.6946 63.0669 30.7461 62.3736 30.8676C61.9993 30.9304 61.6594 31.1249 61.4157 31.4157C61.1494 31.8118 60.9723 32.2603 60.8966 32.7303L59.7487 37.9686C59.6227 38.3929 59.6049 38.8414 59.697 39.2732C59.8554 39.5545 60.1423 39.74 60.4652 39.7699C61.2267 39.8965 61.9992 39.9484 62.7716 39.9249L65.5573 39.9021C65.7672 39.9469 65.9866 39.8918 66.151 39.7529C66.3153 39.6141 66.4059 39.4074 66.3962 39.1935C66.4553 38.8708 66.6107 38.573 66.8421 38.339C67.0534 38.1287 67.3408 38.0121 67.6387 38.0158C67.8932 38.0017 68.1395 38.1051 68.3065 38.296C68.4978 38.6086 68.5401 38.9902 68.4222 39.3384C68.2979 40.0728 67.9291 40.7452 67.3753 41.2472C66.7952 41.6768 66.0845 41.8933 65.3644 41.8599ZM64.6982 29.0041C63.7437 28.9872 62.7911 29.1079 61.87 29.3627C61.1833 29.5562 60.5687 29.9481 60.1039 30.4887C59.6256 31.125 59.3036 31.8637 59.1638 32.6451L57.9975 37.9643C57.7851 38.6663 57.7876 39.4145 58.0046 40.113C58.2623 40.6537 58.7473 41.0521 59.3295 41.2013C60.3261 41.4682 61.3578 41.5854 62.3906 41.5489L65.3259 41.5248C65.9937 41.5648 66.6553 41.368 67.1936 40.9693C67.6934 40.5094 68.0248 39.8966 68.1351 39.2289C68.226 38.9716 68.207 38.6888 68.0826 38.4469C67.9712 38.3308 67.8133 38.2706 67.6521 38.2827C67.4328 38.2842 67.2217 38.368 67.0608 38.5173C66.878 38.7115 66.7554 38.9542 66.7079 39.2158C66.6724 39.4982 66.544 39.7613 66.3427 39.964C66.1127 40.116 65.839 40.1882 65.5644 40.1691L62.7725 40.1919C61.9791 40.2169 61.1856 40.1631 60.4037 40.0312C59.9734 39.9881 59.5975 39.7255 59.4105 39.3376C59.2903 38.8509 59.3036 38.3404 59.4492 37.8593L60.5971 32.621C60.6836 32.1053 60.8818 31.6141 61.1781 31.1817C61.4709 30.8469 61.8713 30.6239 62.3102 30.5514C63.0277 30.4213 63.7566 30.3675 64.4847 30.3908L67.6443 30.3649C67.9104 30.3287 68.1782 30.4131 68.3742 30.5949C68.5053 30.8394 68.5244 31.1287 68.4268 31.3894C68.356 31.6062 68.3701 31.8413 68.4663 32.0473C68.5673 32.1923 68.739 32.2716 68.9158 32.2548C69.4143 32.2507 69.7248 31.9252 69.866 31.2658C70.0641 30.6959 70.0076 30.0699 69.7106 29.5468C69.2969 29.1383 68.7186 28.9397 68.1383 29.007L64.8354 29.0341L64.6982 29.0041Z" fill="white"/>
<path d="M74.1188 42.0391C73.8287 42.0666 73.5429 41.9588 73.3446 41.7472C73.1748 41.515 73.1252 41.216 73.2109 40.9406L75.4466 30.7076L72.6405 30.7306C72.3435 30.7533 72.0505 30.6548 71.8289 30.4577C71.6459 30.2543 71.5792 29.9718 71.6518 29.7073C71.7151 29.4252 71.8809 29.176 72.1172 29.0076C72.3796 28.83 72.6918 28.7404 73.0081 28.7518L80.9402 28.7552C81.2633 28.719 81.5847 28.8306 81.8142 29.0587C81.9634 29.267 82.0058 29.5333 81.9289 29.7785C81.7936 30.4048 81.1868 30.8156 80.5538 30.7093L77.7228 30.7325L75.4748 41.0028C75.4101 41.3008 75.2379 41.5654 74.9909 41.7461C74.7403 41.9371 74.4335 42.04 74.1188 42.0391ZM80.9219 28.8858C81.6016 28.8802 81.8769 29.1638 81.7603 29.7239C81.6433 30.2762 81.1119 30.6416 80.5533 30.554L77.5976 30.5782L75.3189 41.0041C75.2656 41.2673 75.115 41.5014 74.897 41.6599C74.6682 41.8337 74.3865 41.9238 74.0997 41.915C73.8661 41.9319 73.6376 41.8451 73.4753 41.6778C73.337 41.4811 73.2993 41.2308 73.3733 41.0014L75.652 30.5817L72.6588 30.6062C72.4031 30.6313 72.1491 30.5476 71.9596 30.3758C71.8023 30.2108 71.7488 29.9727 71.8203 29.7557C71.864 29.5018 72.0097 29.2762 72.2236 29.131C72.4591 28.9732 72.738 28.8926 73.021 28.9008L80.9219 28.8858Z" fill="white"/>
<path d="M83.0566 41.01C83.0026 41.552 82.5262 41.9549 81.9815 41.9196C81.4019 41.9243 81.1765 41.6156 81.3053 41.0057L83.7608 29.8034C83.8097 29.5261 83.9414 29.2695 84.1385 29.0673C84.3199 28.8964 84.562 28.8049 84.8108 28.8133L88.7807 28.7808C90.5589 28.7662 91.7917 29.015 92.479 29.527C93.1662 30.0246 93.3932 30.8179 93.1538 31.9194C92.9693 32.9443 92.3966 33.861 91.5544 34.4796C90.6019 35.0974 89.4801 35.4021 88.3477 35.3507L84.2843 35.3716L83.0566 41.01ZM87.7066 33.7284C88.6452 33.7966 89.5891 33.6813 90.485 33.3888C90.9738 33.1309 91.3037 32.6488 91.3657 32.1018C91.4736 31.7693 91.4569 31.4096 91.3187 31.0896C91.1147 30.8177 90.8035 30.6462 90.4633 30.6183C89.7849 30.517 89.0987 30.4748 88.4125 30.4922L85.3525 30.5172L84.6465 33.7472L87.7066 33.7284Z" fill="white"/>
<path d="M82.0176 42.0728C81.7494 42.0982 81.4849 41.9996 81.3 41.8053C81.1416 41.5634 81.0995 41.2633 81.1851 40.9862L83.6406 29.7841C83.6951 29.4777 83.8421 29.1948 84.0617 28.973C84.2736 28.778 84.5521 28.6712 84.8397 28.6747L88.8158 28.6421C90.6418 28.6272 91.8767 28.8966 92.6014 29.4187C93.3261 29.9408 93.5845 30.8084 93.3329 31.966C93.1413 33.029 92.5462 33.9796 91.6715 34.6198C90.692 35.2579 89.5375 35.5738 88.3714 35.5227L84.4452 35.5549L83.217 41.0442C83.145 41.6445 82.6235 42.0917 82.0176 42.0728ZM84.8159 29.0041C84.6116 29.0014 84.4135 29.0763 84.2619 29.2137C84.0941 29.3866 83.9782 29.6028 83.9275 29.8376L81.472 41.0398C81.4026 41.2287 81.4216 41.4383 81.5237 41.6109C81.649 41.7284 81.8205 41.7839 81.9917 41.7624C82.4591 41.7907 82.864 41.4381 82.899 40.9722L84.1262 35.2345L88.3081 35.2375C89.4071 35.2831 90.4949 34.9877 91.4214 34.392C92.2398 33.7893 92.7913 32.8932 92.9587 31.8945C93.1858 30.8552 92.9902 30.1237 92.328 29.6632C91.6659 29.2027 90.4559 28.9455 88.7234 28.9473L84.7535 28.9798L84.8159 29.0041ZM87.9484 33.9048L87.7428 33.9065L84.4895 33.9021L85.2629 30.3609L88.4475 30.3349C89.1444 30.3161 89.8413 30.3603 90.5296 30.4669C90.9124 30.5037 91.2613 30.6992 91.4911 31.0057C91.6489 31.3594 91.6723 31.7587 91.5572 32.1296C91.4857 32.7274 91.1207 33.2521 90.5834 33.5291C89.7314 33.8165 88.8321 33.9357 87.9359 33.88L87.9484 33.9048ZM87.7417 33.5959C88.6564 33.6589 89.5756 33.5503 90.4517 33.2755C90.898 33.0349 91.1974 32.5907 91.2517 32.0886C91.3469 31.7933 91.3348 31.4744 91.2175 31.1881C91.0338 30.9591 90.7623 30.8173 90.4683 30.7967C89.8005 30.6952 89.1246 30.6529 88.4487 30.6703L85.5133 30.6944L84.8999 33.6191L87.7417 33.5959Z" fill="white"/>
<path d="M101.69 28.9609L104.043 40.9256C104.054 41.0924 104.04 41.2601 104.001 41.423C103.942 41.6293 103.81 41.8074 103.628 41.923C103.436 42.0624 103.206 42.1382 102.969 42.1396C102.589 42.1753 102.253 41.9017 102.212 41.5246L101.578 38.088L95.9683 38.0843L93.8296 41.5187C93.6152 41.8932 93.2223 42.1314 92.7909 42.1484C92.5804 42.1591 92.3759 42.0794 92.2292 41.9294C92.0917 41.8045 92.0337 41.6145 92.078 41.4336C92.1115 41.2611 92.1675 41.0935 92.2446 40.9353L99.8207 28.9576L101.69 28.9609ZM100.184 31.4583L97.0222 36.3983L101.229 36.4011L100.184 31.4583Z" fill="white"/>
<path d="M102.982 42.2976C102.519 42.3337 102.114 41.9949 102.069 41.5347L101.435 38.2286L96.0316 38.2232L93.9362 41.5827C93.698 42.0017 93.2611 42.2704 92.7794 42.2941C92.5261 42.3054 92.2807 42.2079 92.1054 42.0263C91.9363 41.8683 91.8623 41.6335 91.9101 41.4067C91.9487 41.2191 92.011 41.037 92.0953 40.8647L99.7334 28.8183L101.821 28.8012L101.822 28.9254L104.18 40.8961C104.193 41.0839 104.176 41.2725 104.132 41.4557C104.068 41.6976 103.915 41.9072 103.704 42.0431C103.496 42.2011 103.243 42.2901 102.982 42.2976ZM95.8685 37.9139L101.696 37.9159L102.356 41.4702C102.362 41.6243 102.433 41.7682 102.553 41.8658C102.672 41.9633 102.828 42.0051 102.981 41.9807C103.183 41.9773 103.379 41.9105 103.541 41.7898C103.689 41.6993 103.798 41.5563 103.845 41.3897C103.884 41.2437 103.898 41.0924 103.887 40.942L101.56 29.1077L99.9027 29.1213L92.3574 40.9868C92.2901 41.1277 92.2404 41.2762 92.2093 41.4291C92.1775 41.5609 92.2211 41.6991 92.3227 41.7885C92.4448 41.9046 92.6092 41.966 92.7783 41.9587C93.1545 41.9373 93.4935 41.7228 93.6738 41.3922L95.8685 37.9139ZM101.417 36.5576L96.7303 36.5463L100.246 31.0444L101.417 36.5576ZM97.3089 36.2496L101.048 36.219L100.124 31.8343L97.3089 36.2496Z" fill="white"/>
<path d="M107.79 41.0452C107.746 41.6003 107.267 42.022 106.709 41.9979C106.13 42.0026 105.904 41.6816 106.045 41.0471L108.501 29.85C108.642 29.2279 108.99 28.8774 109.544 28.879C110.099 28.8807 110.387 29.2012 110.246 29.8544L109.319 34.1154L116.554 34.1183L117.487 29.8572C117.528 29.2944 118.008 28.8626 118.574 28.8796C119.154 28.8749 119.373 29.2084 119.232 29.8553L116.776 41.0523C116.729 41.6059 116.252 42.0259 115.695 42.005C115.116 42.0098 114.89 41.6887 115.032 41.048L116.185 35.773L108.944 35.7702L107.79 41.0452Z" fill="white"/>
<path d="M115.707 42.1601C115.442 42.1809 115.182 42.0801 115.002 41.8864C114.835 41.6294 114.793 41.3107 114.887 41.018L116.017 35.9296L109.093 35.9242L107.933 41.0812C107.866 41.7083 107.322 42.178 106.69 42.1532C106.425 42.1793 106.164 42.0803 105.985 41.8857C105.818 41.6283 105.778 41.3089 105.876 41.0173L108.331 29.8204C108.375 29.2013 108.895 28.7209 109.518 28.7241C109.795 28.7005 110.068 28.8033 110.26 29.0036C110.426 29.2657 110.468 29.5875 110.375 29.8844L109.485 33.9588L116.403 33.9642L117.311 29.8214C117.368 29.186 117.914 28.704 118.554 28.7246C118.817 28.7048 119.074 28.8056 119.253 28.9983C119.425 29.2601 119.468 29.587 119.368 29.8853L116.912 41.0822C116.847 41.6956 116.326 42.1618 115.707 42.1601ZM108.83 35.6158L116.389 35.616L115.193 41.0838C115.118 41.2888 115.137 41.5154 115.244 41.7044C115.367 41.8223 115.536 41.88 115.706 41.862C116.211 41.8579 116.503 41.5947 116.626 41.0286L119.081 29.8317C119.153 29.6265 119.134 29.4009 119.029 29.2112C118.908 29.0943 118.742 29.0366 118.574 29.0535C118.069 29.0577 117.777 29.3333 117.648 29.9056L116.69 34.2599L109.131 34.2597L110.107 29.8059C110.177 29.6004 110.158 29.3757 110.055 29.1854C109.922 29.06 109.739 29.0001 109.556 29.0218C109.083 29.0257 108.803 29.295 108.674 29.8735L106.219 41.0704C106.147 41.2756 106.166 41.5012 106.271 41.6909C106.394 41.8073 106.563 41.8628 106.732 41.8424C107.237 41.8382 107.529 41.575 107.652 41.0152L108.83 35.6158Z" fill="white"/>
<path d="M128.29 29.0477L130.642 41.0185C130.654 41.1854 130.639 41.353 130.6 41.5159C130.543 41.7213 130.41 41.8979 130.228 42.0097C130.037 42.1509 129.806 42.2289 129.568 42.2326C129.19 42.2648 128.856 41.9929 128.812 41.6175L128.177 38.1872L122.568 38.1834L120.423 41.6179C120.21 41.9905 119.82 42.2285 119.391 42.2476C119.18 42.2578 118.974 42.1808 118.823 42.0348C118.685 41.9072 118.628 41.7155 118.672 41.5328C118.706 41.3625 118.762 41.1971 118.838 41.0407L126.427 29.0754L128.29 29.0477ZM126.784 31.545L123.622 36.485L127.829 36.4878L126.784 31.545Z" fill="white"/>
<path d="M129.575 42.3873C129.11 42.4233 128.704 42.081 128.663 41.6182L128.028 38.3122L122.625 38.313L120.53 41.6724C120.292 42.0972 119.847 42.3657 119.36 42.3778C119.108 42.3883 118.864 42.2934 118.686 42.1162C118.519 41.9569 118.446 41.7233 118.491 41.4965C118.532 41.3115 118.594 41.1316 118.676 40.9607L126.321 28.9081L128.402 28.891L128.403 29.0153L130.761 40.986C130.774 41.1737 130.758 41.3625 130.713 41.5455C130.651 41.79 130.498 42.0022 130.285 42.1392C130.077 42.2885 129.831 42.3747 129.575 42.3873ZM122.468 38.0036L128.302 38.0055L128.968 41.566C128.974 41.7201 129.046 41.8641 129.165 41.9616C129.284 42.0591 129.44 42.1009 129.593 42.0765C129.797 42.0749 129.996 42.0079 130.159 41.8855C130.308 41.7951 130.416 41.6521 130.464 41.4854C130.502 41.3374 130.517 41.184 130.506 41.0316L128.179 29.2035L126.521 29.2171L118.976 41.0825C118.91 41.2264 118.861 41.3768 118.828 41.531C118.797 41.6609 118.841 41.7968 118.941 41.8842C119.063 42.0004 119.228 42.0618 119.397 42.0544C119.772 42.0367 120.112 41.8241 120.292 41.4942L122.468 38.0036ZM128.017 36.6473L123.342 36.6483L126.858 31.1464L128.017 36.6473ZM123.908 36.3331L127.648 36.3025L126.723 31.924L123.908 36.3331Z" fill="white"/>
<path d="M4.78006 47.6566L0.226835 68.2164L175.294 67.7308L179.847 47.1649L4.78006 47.6566Z" fill="#9E365B"/>
<path d="M9.91306 52.1554C9.96407 51.8775 10.0979 51.6209 10.297 51.4192C10.476 51.2487 10.7162 51.1571 10.963 51.1653L14.8767 51.1332C15.851 51.1019 16.8239 51.2153 17.7633 51.4699C18.3569 51.6213 18.8634 52.0044 19.1691 52.5331C19.4168 53.1425 19.4519 53.818 19.269 54.4518C19.1112 55.2786 18.6737 56.0278 18.0296 56.5741C18.9852 57.1874 19.2817 58.2597 18.938 59.8466L18.852 60.2262C18.7091 61.0458 18.3624 61.8176 17.8437 62.4709C17.33 63.0404 16.6589 63.4459 15.9156 63.6359C14.8528 63.905 13.7582 64.0248 12.6636 63.9918L8.12659 63.9917C7.90865 64.0094 7.69785 63.9122 7.57107 63.7353C7.45832 63.508 7.43737 63.2459 7.51253 63.0027L9.91306 52.1554ZM10.4244 57.8291L9.43612 62.3596L13.0507 62.33C13.8469 62.355 14.644 62.3027 15.4308 62.1738C15.8623 62.1118 16.261 61.9073 16.5631 61.593C16.8573 61.1882 17.0521 60.7206 17.1319 60.2279L17.1994 59.9105C17.3349 59.4706 17.3526 59.0036 17.251 58.5559C17.112 58.2297 16.815 57.9977 16.4637 57.9411C15.7902 57.8151 15.1046 57.7624 14.419 57.7839L10.4244 57.8291ZM13.7842 56.1678C14.4969 56.1811 15.2098 56.1337 15.9151 56.0261C16.316 55.9759 16.6943 55.811 17.0041 55.5512C17.2682 55.2712 17.4428 54.9194 17.5056 54.5408C17.6138 54.2094 17.5926 53.8501 17.4461 53.5349C17.2219 53.272 16.9045 53.1056 16.5596 53.07C15.8757 52.961 15.183 52.9147 14.4901 52.9317L11.4925 52.9562L10.7866 56.1923L13.7842 56.1678Z" fill="white"/>
<path d="M12.903 64.1744L12.7098 64.176L8.17278 64.1759C7.89971 64.2012 7.63565 64.0743 7.48613 63.846C7.34763 63.5847 7.31969 63.2786 7.4085 62.9956L9.74665 52.1238C9.79933 51.8137 9.94888 51.5276 10.1739 51.3065C10.3809 51.1117 10.6556 51.0047 10.9395 51.0082L14.8532 50.9762C15.8448 50.9448 16.8347 51.0623 17.7898 51.3248C18.4245 51.4817 18.9649 51.8931 19.2831 52.4619C19.5508 53.1009 19.5905 53.813 19.3958 54.4799C19.2501 55.269 18.8628 55.995 18.2871 56.5576C19.1618 57.209 19.4335 58.3249 19.0897 59.8808L19.01 60.2542C18.8552 61.0977 18.4963 61.8918 17.9645 62.5675C17.4318 63.1613 16.7346 63.5844 15.9617 63.7828C14.9631 64.046 13.9347 64.1777 12.903 64.1744ZM10.9904 51.3184C10.7844 51.3127 10.5845 51.3905 10.4365 51.5342C10.2645 51.704 10.1479 51.9216 10.102 52.1581L7.72648 63.0365C7.66037 63.2408 7.67221 63.462 7.75972 63.6574C7.85962 63.7911 8.02393 63.8609 8.19035 63.8403L12.7212 63.8404C13.801 63.8724 14.8808 63.7549 15.9296 63.4911C16.6504 63.3144 17.3012 62.9233 17.7955 62.3701C18.2949 61.737 18.6306 60.9917 18.773 60.2002L18.8589 59.8206C19.1904 58.2897 18.919 57.2731 18.0197 56.7214L17.8386 56.6048L18.0002 56.473C18.583 55.9369 18.971 55.2233 19.1027 54.445C19.2799 53.8471 19.2492 53.2081 19.0157 52.6318C18.7315 52.1392 18.2578 51.7841 17.7036 51.6486C16.7803 51.399 15.8243 51.2875 14.8668 51.3177L10.9905 51.3433L10.9904 51.3184ZM13.3399 62.4811L13.0843 62.4832L9.27646 62.4833L10.3322 57.6478L14.4517 57.6513C15.1501 57.628 15.8485 57.6827 16.5339 57.8144C16.9304 57.8729 17.2679 58.1306 17.4273 58.4967C17.5446 58.9734 17.5312 59.4734 17.3886 59.9444L17.3211 60.2618C17.2311 60.7793 17.0191 61.2686 16.7026 61.6895C16.3696 62.0322 15.9315 62.2545 15.4583 62.3209C14.7463 62.4464 14.0249 62.5084 13.3025 62.5063L13.3399 62.4811ZM9.66181 62.1696L13.0894 62.1415C13.8729 62.1614 14.657 62.1113 15.4322 61.9918C15.831 61.9359 16.1995 61.7467 16.4775 61.4553C16.7576 61.0738 16.9421 60.6313 17.0154 60.1649L17.0829 59.8475C17.209 59.4338 17.2268 58.9952 17.1347 58.5736C17.0061 58.3053 16.75 58.1205 16.4537 58.0822C15.7926 57.9581 15.1195 57.9074 14.4465 57.9309L10.5825 57.9315L9.66181 62.1696ZM14.0483 56.288L13.8177 56.2899L10.6268 56.2849L11.4003 52.7439L14.5163 52.7183C15.2199 52.6998 15.9233 52.7481 16.617 52.8626C17.0053 52.8992 17.3613 53.0913 17.6035 53.395C17.7753 53.742 17.8057 54.1424 17.6882 54.5125C17.6197 54.9232 17.4275 55.3039 17.1372 55.6042C16.8052 55.886 16.3989 56.0663 15.9673 56.1232C15.3217 56.2436 14.6673 56.3092 14.011 56.3193L14.0483 56.288ZM11.0122 55.9774L13.8166 55.9544C14.5189 55.9697 15.2214 55.9244 15.9164 55.8192C16.2881 55.7694 16.6391 55.6181 16.9308 55.3822C17.1722 55.1215 17.3315 54.7961 17.3889 54.4466C17.4842 54.1572 17.4699 53.8434 17.3485 53.5648C17.1453 53.3385 16.8654 53.1949 16.5619 53.1613C15.8883 53.0552 15.2059 53.0109 14.5236 53.0289L11.6506 53.0524L11.0122 55.9774Z" fill="white"/>
<path d="M32.0299 59.3894C31.8273 60.3308 31.403 61.2117 30.792 61.9592C30.1908 62.6957 29.4209 63.2774 28.5476 63.655C27.6116 64.0596 26.6012 64.2626 25.5829 64.2509C24.6413 64.2817 23.7082 64.0757 22.8697 63.6518C22.1763 63.2905 21.6418 62.6867 21.3682 61.9556C21.0889 61.1268 21.0556 60.234 21.2724 59.3843L22.0398 55.8927C22.2396 54.9504 22.6643 54.0688 23.2777 53.3229C23.8743 52.5844 24.6428 52.0022 25.5158 51.6272C26.4533 51.2201 27.4662 51.017 28.4868 51.0313C29.4285 50.9988 30.362 51.2049 31.2 51.6303C31.8949 51.9897 32.43 52.5942 32.7015 53.3265C32.9816 54.1555 33.0127 55.0491 32.7911 55.8979L32.0299 59.3894ZM28.1246 52.6992C27.1015 52.6524 26.0899 52.9447 25.2479 53.5305C24.4811 54.1335 23.9625 54.9959 23.7913 55.9529L23.0547 59.3263C22.7792 60.1504 22.9266 61.0549 23.4492 61.746C23.9497 62.3072 24.7858 62.58 25.9451 62.5829C26.9682 62.6298 27.9797 62.3375 28.8218 61.7517C29.6055 61.1477 30.136 60.2748 30.3094 59.3041L31.046 55.9308C31.3021 55.1085 31.1659 54.2164 30.6765 53.5108C30.176 52.9496 29.3274 52.677 28.137 52.6743L28.1246 52.6992Z" fill="white"/>
<path d="M25.6716 64.4053L25.5968 64.4059C24.6328 64.442 23.6763 64.2363 22.8151 63.8074C22.0892 63.4292 21.5301 62.7967 21.2448 62.031C20.9511 61.1752 20.9155 60.2511 21.1424 59.3728L21.9036 55.8813C22.1033 54.9183 22.5273 54.0146 23.1413 53.2432C23.7578 52.4884 24.5468 51.8916 25.4415 51.5034C26.4007 51.0944 27.4334 50.8871 28.4748 50.8946C29.4411 50.8555 30.4003 51.0614 31.2628 51.493C31.9886 51.8713 32.5477 52.5037 32.8331 53.2694C33.1204 54.1265 33.1559 55.0487 32.9354 55.9276L32.1805 59.4191C31.9825 60.3827 31.5584 61.2868 30.9428 62.0572C30.324 62.8123 29.533 63.409 28.6363 63.797C27.6996 64.2007 26.6903 64.4078 25.6716 64.4053ZM28.4134 51.1871C27.4396 51.1847 26.4748 51.383 25.5795 51.7694C24.7302 52.1375 23.9816 52.7042 23.3974 53.4212C22.8104 54.149 22.4032 55.0038 22.2091 55.9161L21.4479 59.4138C21.2345 60.2341 21.2655 61.0976 21.5373 61.8982C21.7957 62.5963 22.3035 63.1738 22.9637 63.5204C23.7789 63.9349 24.6854 64.1409 25.6021 64.1201C26.5989 64.1302 27.5877 63.9316 28.5046 63.5372C29.3547 63.1674 30.1049 62.6011 30.6929 61.8853C31.2791 61.1578 31.6843 60.3028 31.875 59.3905L32.6424 55.8927C32.853 55.0721 32.822 54.2095 32.5531 53.4084C32.2901 52.711 31.7807 52.1344 31.1204 51.7862C30.3085 51.369 29.4033 51.1628 28.4882 51.1865L28.4134 51.1871ZM26.0275 62.7374L25.959 62.738C24.7125 62.7482 23.8514 62.4384 23.3321 61.8524C22.7727 61.126 22.6109 60.1693 22.8997 59.2963L23.6364 55.9168C23.8169 54.929 24.3552 54.0401 25.1488 53.4193C25.997 52.824 27.0161 52.5211 28.0503 52.5568L28.1188 52.5563C29.3653 52.5461 30.2452 52.8557 30.7769 53.4416C31.2971 54.1854 31.4449 55.1276 31.1781 55.9979L30.4414 59.3712C30.2587 60.3582 29.7208 61.2463 28.929 61.8687C28.0806 62.4641 27.0621 62.7691 26.0275 62.7374ZM28.0637 52.8549C27.0952 52.82 26.1401 53.1004 25.3428 53.6538C24.6071 54.2339 24.1105 55.0631 23.9482 55.9826L23.2054 59.3622C22.9481 60.1408 23.0832 60.9935 23.5683 61.6517C24.2153 62.2409 25.0831 62.5294 25.958 62.446C26.9465 62.4849 27.9227 62.2045 28.7413 61.6466C29.4752 61.0649 29.9713 60.2365 30.1359 59.3178L30.8725 55.9383C31.1169 55.1627 30.9948 54.3202 30.5407 53.6485C29.8799 53.0632 29.0018 52.7819 28.1199 52.8731L28.0576 52.8736L28.0637 52.8549Z" fill="white"/>
<path d="M41.2886 56.6467C41.9716 56.6695 42.6485 56.5027 43.2437 56.1648C43.7325 55.8921 44.084 55.4267 44.2116 54.8836C44.3568 54.3665 44.1898 53.8137 43.7831 53.4647C43.2826 53.073 42.6543 52.8792 42.0177 52.9201L38.2101 52.914C37.9687 52.8923 37.7263 52.9487 37.5189 53.075C37.3492 53.2719 37.2435 53.5154 37.2159 53.7731L37.1361 54.1278C36.9888 54.7999 36.6222 55.1383 36.0427 55.1368C35.4631 55.1353 35.2439 54.8017 35.4161 54.1295C35.5328 53.3006 35.8898 52.5227 36.4431 51.8912C37.0073 51.4289 37.7275 51.2005 38.4538 51.2536L42.5543 51.2573C43.2822 51.2368 44.0039 51.3862 44.662 51.6934C45.2115 51.9448 45.654 52.3808 45.9125 52.9255C46.1526 53.5029 46.1985 54.1431 46.0432 54.7506C45.8043 55.8948 45.1047 56.8932 44.1082 57.5119C44.8388 58.2909 45.1028 59.3975 44.8034 60.4255C44.6473 61.1182 44.3195 61.7616 43.85 62.2968C43.3579 62.8653 42.7437 63.3163 42.0534 63.6159C41.3353 63.9338 40.5585 64.0968 39.7742 64.0942L35.6738 64.0905C34.7889 64.0977 34.2086 63.8727 33.9454 63.4462C33.6823 63.0198 33.6611 62.2684 33.8944 61.2105C34.0417 60.5385 34.402 60.2001 34.9878 60.2016C35.5735 60.203 35.7865 60.5366 35.6143 61.2151L35.5345 61.5698C35.4609 61.9244 35.4617 62.1605 35.5368 62.2655C35.6119 62.3704 35.824 62.4246 36.1605 62.4218L39.9681 62.4217C40.6886 62.4298 41.3936 62.2062 41.9787 61.7841C42.525 61.4265 42.9136 60.8741 43.0641 60.241C43.2063 59.7298 43.0534 59.1836 42.6668 58.8218C42.1861 58.4295 41.5728 58.2347 40.9513 58.2769L39.1628 58.2915C38.44 58.2974 38.1399 58.0142 38.2627 57.4541C38.3854 56.8941 38.8083 56.6235 39.5062 56.624L41.2886 56.6467Z" fill="white"/>
<path d="M39.7679 64.2657L39.718 64.2661L35.6172 64.2624C34.6762 64.2701 34.0521 64.0206 33.7451 63.5449C33.4382 63.0692 33.4294 62.3054 33.6687 61.1981C33.7278 60.5581 34.2667 60.0662 34.9114 60.0638C35.172 60.0407 35.428 60.1396 35.6041 60.3314C35.7816 60.6079 35.8218 60.9509 35.7131 61.262L35.6395 61.6166C35.5413 62.0646 35.5977 62.1697 35.6103 62.1882C35.6228 62.2067 35.7103 62.2868 36.1092 62.2835L39.9171 62.2896L39.9482 62.2893C40.617 62.2861 41.2693 62.0769 41.8159 61.6903C42.3339 61.3616 42.7018 60.843 42.8394 60.2473C42.9633 59.7998 42.8272 59.322 42.4863 59.0081C42.0381 58.6395 41.464 58.4574 40.8829 58.4996L39.0943 58.5143C38.7489 58.5533 38.4051 58.4352 38.1584 58.1928C38.0116 57.9907 37.9692 57.731 38.0438 57.492C38.1359 57.0565 38.4582 56.5446 39.4367 56.5366L41.2253 56.5219C41.8784 56.5459 42.5259 56.3856 43.0934 56.0595C43.548 55.8154 43.8743 55.3864 43.9869 54.8846C44.1176 54.4229 43.9704 53.9286 43.6087 53.6146C43.1381 53.2474 42.5473 53.0665 41.9493 53.1066L38.1413 53.1005C37.9364 53.0787 37.7294 53.1217 37.5497 53.2233C37.4036 53.4008 37.3152 53.6182 37.2963 53.8464L37.2164 54.2011C37.0139 55.1343 36.4412 55.3315 35.9738 55.3353C35.7129 55.3604 35.456 55.2612 35.2811 55.0677C35.1006 54.7925 35.0581 54.4491 35.1658 54.1371C35.2932 53.2797 35.6672 52.4763 36.2425 51.8243C36.8375 51.3385 37.5932 51.0928 38.3591 51.1363L42.46 51.1399C43.214 51.1188 43.9617 51.2743 44.6428 51.594C45.2124 51.8659 45.668 52.3278 45.931 52.9001C46.1859 53.5062 46.2341 54.1798 46.0682 54.8179C45.8321 55.9413 45.1643 56.9299 44.2078 57.5719C44.8891 58.3819 45.1257 59.4759 44.8408 60.498C44.6849 61.2227 44.3461 61.8967 43.8564 62.456C43.346 63.0451 42.7081 63.5112 41.9913 63.8189C41.2867 64.1139 40.5308 64.2658 39.7679 64.2657ZM34.9187 60.3743C34.4139 60.3784 34.1157 60.6603 33.9868 61.2638C33.7658 62.2778 33.7744 62.9857 33.9939 63.3814C34.2133 63.7771 34.7686 63.9526 35.5975 63.952L39.6921 63.9558C40.4556 63.9647 41.2126 63.8058 41.9092 63.4905C42.5747 63.2043 43.1692 62.7753 43.65 62.2342C44.1062 61.712 44.4216 61.0831 44.5663 60.407C44.8663 59.4327 44.6255 58.3754 43.9338 57.63L43.8024 57.4945L43.989 57.3625C44.9448 56.7624 45.6166 55.8019 45.8497 54.7017C45.9985 54.1255 45.9549 53.5175 45.7255 52.9701C45.4913 52.4626 45.0866 52.0532 44.5812 51.8119C43.9438 51.5168 43.2457 51.3737 42.5418 51.3939L38.441 51.3902L38.36 51.3909C37.6836 51.3455 37.0145 51.5624 36.4924 51.9961C35.963 52.6041 35.6212 53.3511 35.5086 54.1467C35.4281 54.3677 35.4471 54.612 35.5607 54.817C35.6782 54.9346 35.8443 54.9907 36.0099 54.9686C36.5085 54.9645 36.8192 54.6887 36.9543 54.0852L37.0279 53.7244C37.0638 53.4343 37.1892 53.162 37.3867 52.9452C37.6246 52.801 37.9002 52.7316 38.1776 52.7462L41.9855 52.7523C42.6643 52.7157 43.3313 52.9316 43.8572 53.358C44.3091 53.742 44.4958 54.353 44.336 54.9253C44.2038 55.511 43.8267 56.0136 43.2999 56.3062C42.6788 56.6612 41.9714 56.8369 41.2574 56.8136L39.4688 56.8282C38.8456 56.8333 38.4662 57.0538 38.3618 57.539C38.3131 57.6866 38.3319 57.8477 38.4132 57.9795C38.6047 58.1413 38.8557 58.2157 39.1056 58.185L40.8942 58.1704C41.5581 58.1324 42.2101 58.3493 42.7161 58.7765C43.1467 59.1739 43.3171 59.7789 43.1576 60.3441C42.9984 61.013 42.5876 61.5967 42.01 61.9743C41.4032 62.3954 40.6808 62.6184 39.9431 62.6123L39.9119 62.6125L36.104 62.6065C35.7114 62.6097 35.4806 62.5371 35.3617 62.389C35.2427 62.2409 35.2357 61.9863 35.3589 61.5692L35.4387 61.2084C35.516 60.9871 35.4971 60.7441 35.3866 60.5381C35.2662 60.4251 35.1024 60.3699 34.9374 60.3865L34.9187 60.3743Z" fill="white"/>
<path d="M54.2725 58.3394C54.0695 58.5141 53.8119 58.6129 53.5444 58.6185C53.3042 58.6299 53.0732 58.5283 52.9203 58.3443L50.7 54.0163L48.6807 63.2591C48.5335 63.937 48.1669 64.2753 47.5874 64.2738C47.0079 64.2724 46.7825 63.9576 46.9175 63.3232L49.3726 52.1273C49.5139 51.5053 49.8616 51.1547 50.4162 51.1563C50.7586 51.1519 51.0681 51.3561 51.1969 51.6715L53.9184 56.8087L58.8863 51.6521C59.1342 51.3625 59.4889 51.1849 59.8692 51.1597C60.4362 51.1551 60.6492 51.4824 60.4956 52.1294L58.0404 63.3252C57.9928 63.8787 57.5162 64.2987 56.9594 64.2778C56.3736 64.2826 56.1606 63.9367 56.3329 63.2647L58.3521 54.022L54.2725 58.3394Z" fill="white"/>
<path d="M57.0212 64.4509C56.7599 64.4706 56.5046 64.3697 56.3287 64.1772C56.1484 63.9043 56.1058 63.5629 56.2134 63.253L58.1159 54.5445L54.3904 58.462C54.1618 58.6552 53.8741 58.765 53.5752 58.7729C53.2878 58.7846 53.0124 58.6602 52.8326 58.4375L50.7943 54.4927L48.861 63.3132C48.6585 64.2524 48.0797 64.462 47.6186 64.4472C47.3555 64.467 47.0982 64.3662 46.9198 64.1735C46.7465 63.9188 46.7039 63.5972 46.8047 63.3052L49.2597 52.1085C49.3038 51.4904 49.8246 51.0119 50.4462 51.0184C50.8516 51.0115 51.2175 51.256 51.3642 51.6318L53.9915 56.5777L58.835 51.5707C59.1112 51.2524 59.5033 51.0569 59.9236 51.0278C60.1794 51.0042 60.4309 51.1009 60.6037 51.2892C60.7774 51.5532 60.8176 51.8833 60.7126 52.1824L58.2576 63.379C58.1914 64.0036 57.6507 64.4724 57.0212 64.4509ZM58.6423 53.5592L56.5066 63.3437C56.4261 63.5646 56.4451 63.8089 56.5587 64.0139C56.6765 64.1313 56.8416 64.1893 57.0078 64.1716C57.525 64.1674 57.8107 63.9043 57.9335 63.3382L60.3884 52.1416C60.4574 51.936 60.4386 51.7117 60.3365 51.5211C60.2207 51.4094 60.0603 51.356 59.8999 51.3757C59.5633 51.4087 59.2516 51.5691 59.029 51.8237L53.8875 57.1311L51.0657 51.8019C50.9629 51.5469 50.7174 51.378 50.4412 51.3724C49.9739 51.3762 49.6756 51.6395 49.5467 52.218L47.0917 63.4146C47.0137 63.619 47.0328 63.8472 47.1436 64.0351C47.2663 64.153 47.4353 64.2107 47.6053 64.1927C48.11 64.1886 48.4143 63.9067 48.5494 63.3033L50.6606 53.6369L53.0814 58.3237C53.2066 58.457 53.3846 58.5283 53.5681 58.5184C53.7962 58.5142 54.0162 58.4312 54.1904 58.2836L58.6423 53.5592Z" fill="white"/>
<path d="M72.4715 59.5248C72.2703 60.4667 71.8458 61.3479 71.2336 62.0946C70.6335 62.8295 69.866 63.411 68.9955 63.7903C68.0562 64.1915 67.0445 64.3944 66.0245 64.3862C65.0829 64.417 64.1498 64.211 63.3113 63.7872C62.619 63.4245 62.0849 62.8212 61.8099 62.091C61.5301 61.2619 61.4989 60.3685 61.7202 59.5197L62.5002 56.0528C62.7 55.1086 63.1246 54.2251 63.7381 53.4768C64.3382 52.7419 65.1057 52.1604 65.9762 51.7811C66.915 51.3791 67.9273 51.1781 68.9472 51.1914C69.889 51.1581 70.8227 51.3643 71.6603 51.7905C72.3527 52.1531 72.8868 52.7565 73.1618 53.4866C73.4416 54.3157 73.4727 55.2091 73.2514 56.058L72.4715 59.5248ZM68.5662 52.8285C67.5424 52.7834 66.5308 53.0779 65.6895 53.6659C64.9218 54.2654 64.4028 55.1263 64.233 56.0821L63.4963 59.4616C63.2208 60.2858 63.3683 61.1903 63.8908 61.8813C64.5661 62.4982 65.472 62.802 66.3867 62.7182C67.4105 62.7633 68.4221 62.4688 69.2633 61.8808C70.0381 61.2844 70.564 60.4231 70.7386 59.4644L71.4752 56.0849C71.7294 55.2625 71.5933 54.3713 71.1057 53.665C70.6052 53.11 69.7566 52.8311 68.5662 52.8285Z" fill="white"/>
<path d="M66.1094 64.5416L66.0346 64.5422C65.0709 64.5751 64.1151 64.3695 63.2529 63.9437C62.528 63.5612 61.9696 62.9273 61.6825 62.1611C61.3884 61.3053 61.3529 60.3812 61.5801 59.5029L62.3476 56.0113C62.5464 55.0499 62.9706 54.1481 63.5853 53.3794C64.2031 52.6244 64.9916 52.026 65.8855 51.6334C66.846 51.2294 67.8781 51.0244 68.9188 51.0308C69.8849 50.9942 70.8435 51.1999 71.7068 51.6293C72.4316 52.0118 72.99 52.6457 73.2771 53.4119C73.5679 54.2682 73.6035 55.1915 73.3795 56.0701L72.6058 59.5555C72.4069 60.5169 71.9828 61.4187 71.3681 62.1874C70.7506 62.9427 69.962 63.5413 69.0678 63.9333C68.1324 64.3342 67.1258 64.5411 66.1094 64.5416ZM68.8387 51.3173C67.8631 51.3172 66.8967 51.5154 65.9986 51.8997C65.1658 52.2776 64.4331 52.8455 63.8601 53.5573C63.2739 54.2856 62.8668 55.1402 62.6718 56.0521L61.9106 59.5437C61.6972 60.364 61.7282 61.2274 61.9999 62.028C62.2586 62.7244 62.7666 63.2999 63.4264 63.6441C64.2405 64.0612 65.1477 64.2674 66.0648 64.2437C67.0628 64.246 68.0521 64.0477 68.9734 63.6608C69.8205 63.2888 70.5682 62.7227 71.1556 62.009C71.7418 61.2807 72.1489 60.4261 72.3439 59.5141L73.1051 56.0226C73.3185 55.2023 73.2875 54.3389 73.0158 53.5383C72.755 52.8411 72.2449 52.2657 71.5831 51.9223C70.7714 51.5043 69.8661 51.2981 68.9509 51.3226L68.8387 51.3173ZM66.4652 62.855L66.3842 62.8557C65.1377 62.8659 64.2766 62.5561 63.7573 61.9701C63.1969 61.2419 63.035 60.2828 63.325 59.4078L64.0616 56.0345C64.2427 55.047 64.7809 54.1583 65.574 53.5371C66.4459 52.9366 67.4875 52.6318 68.5441 52.6678C69.7905 52.6576 70.6704 52.9673 71.2021 53.5593C71.7223 54.3031 71.8702 55.2454 71.6033 56.1157L70.8667 59.489C70.6856 60.4765 70.1474 61.3652 69.3543 61.9864C68.5093 62.5792 67.4956 62.884 66.4652 62.855ZM68.5014 52.9664C67.5324 52.9346 66.5776 53.2171 65.7805 53.7715C65.0452 54.352 64.5488 55.1809 64.3859 56.1002L63.643 59.4736C63.3868 60.2523 63.5219 61.1045 64.006 61.7631C64.4689 62.2812 65.2551 62.5419 66.4019 62.5449C67.3915 62.5856 68.3688 62.3027 69.1852 61.7393C69.9204 61.1588 70.4168 60.3298 70.5797 59.4106L71.3164 56.0372C71.56 55.2596 71.438 54.4155 70.9846 53.7413C70.3207 53.1613 69.445 52.8808 68.5638 52.9659L68.5014 52.9664Z" fill="white"/>
<path d="M83.1681 59.0987L82.2111 63.4482C82.1578 63.7094 82.0101 63.9423 81.796 64.1029C81.587 64.273 81.3251 64.3651 81.0558 64.3632C80.8304 64.3766 80.6135 64.2786 80.4757 64.1013C80.3618 63.9162 80.3275 63.6931 80.3802 63.4818L81.3371 59.1013L81.1939 59.1024C80.6091 59.0956 80.0333 59.2529 79.5326 59.5564C79.0096 59.8823 78.5815 60.3393 78.2914 60.8815C78.0933 61.2304 77.8023 61.7414 77.4309 62.4329C77.1108 63.0109 76.6578 63.5057 76.1092 63.8765C75.5964 64.2114 74.9976 64.3908 74.3858 64.393C74.1178 64.4131 73.8525 64.331 73.6439 64.1633C73.4803 64.0025 73.4196 63.7644 73.4862 63.5444C73.6089 62.9914 74.0252 62.7151 74.729 62.7155C74.8254 62.6997 74.9134 62.6507 74.9776 62.577C75.0935 62.4599 75.1898 62.3251 75.2628 62.1777C75.6033 61.5857 75.882 61.1058 76.0303 60.7511C76.3467 60.125 76.7658 59.5555 77.2702 59.0663C77.7918 58.5415 78.413 58.1252 79.0971 57.8419C78.7735 57.3032 78.5086 56.7316 78.3067 56.1365C77.9925 55.3017 77.7163 54.6589 77.4844 54.1956C77.2524 53.7324 76.9963 53.5236 76.6973 53.5012C76.4346 53.5085 76.1783 53.4227 75.9741 53.259C75.8148 53.0956 75.759 52.8578 75.8288 52.64C75.9474 52.0973 76.3388 51.8274 77.0031 51.8303C77.5427 51.8305 78.0655 52.0119 78.4871 52.3453C78.9873 52.7463 79.3822 53.2623 79.638 53.8493C79.8514 54.3251 80.0837 54.8753 80.3348 55.4934C80.4999 55.9756 80.71 56.4411 80.9623 56.8839C81.1316 57.2422 81.3191 57.4206 81.5121 57.419L81.6367 57.418L82.6427 52.8199C82.693 52.5452 82.8348 52.2949 83.0451 52.1096C83.2476 51.9408 83.5033 51.8486 83.7667 51.8494C84.3894 51.8443 84.6085 52.1774 84.4675 52.8236L83.4677 57.4216L83.5922 57.4206C83.7542 57.4192 84.0214 57.2434 84.3938 56.8868C84.6732 56.6054 85.0951 56.143 85.6348 55.4997C86.2551 54.7566 86.7887 54.1506 87.2355 53.6755C87.6795 53.2017 88.1777 52.7813 88.7198 52.4229C89.2291 52.066 89.8285 51.859 90.4491 51.8257C90.7153 51.8053 90.9787 51.8875 91.1848 52.0554C91.3507 52.2149 91.4138 52.4531 91.3488 52.6743C91.2974 52.9164 91.1528 53.1292 90.9459 53.2668C90.6946 53.4252 90.4027 53.5073 90.106 53.5032C89.6617 53.602 89.267 53.8561 88.9936 54.2194C88.3985 54.8242 87.8412 55.4646 87.3247 56.1372C86.8485 56.7376 86.3346 57.3074 85.7859 57.843C86.1725 58.0212 86.5171 58.2783 86.7973 58.5976C87.0678 58.8915 87.2652 59.2446 87.3737 59.6287C87.5965 60.3258 87.7164 61.0519 87.7297 61.7843C87.7089 62.0186 87.7351 62.2545 87.8067 62.4783C87.8695 62.639 87.957 62.719 88.0691 62.718C88.3329 62.7017 88.5929 62.7836 88.7985 62.9478C88.9747 63.1009 89.0417 63.3444 88.9687 63.5666C88.8461 64.1258 88.411 64.4023 87.6637 64.4022C87.1142 64.4288 86.5763 64.2445 86.161 63.8873C85.7761 63.502 85.552 62.9855 85.5334 62.4411C85.5059 62.2625 85.4887 62.0825 85.4818 61.9019C85.4264 61.4333 85.3458 60.9681 85.2405 60.5083C85.1532 60.1738 84.9879 59.865 84.7579 59.6067C84.3389 59.2492 83.7947 59.0709 83.2429 59.1105L83.1681 59.0987Z" fill="white"/>
<path d="M87.7562 64.5426C87.1652 64.5848 86.5839 64.3837 86.1481 63.9863C85.7124 63.5889 85.4604 63.0299 85.451 62.4401C85.4237 62.2574 85.4064 62.0732 85.3994 61.8885C85.3454 61.432 85.2649 60.9791 85.1582 60.5321C85.0001 59.6747 84.181 59.1048 83.3167 59.2508L82.3842 63.5072C82.3244 63.802 82.1593 64.0656 81.9196 64.2491C81.6824 64.4374 81.3886 64.5403 81.0861 64.5413C80.8113 64.5572 80.5471 64.4362 80.3812 64.2183C80.2288 63.9886 80.1846 63.7036 80.2603 63.4378L81.1743 59.2497C80.6341 59.2503 80.1041 59.4007 79.6436 59.684C79.1516 59.9917 78.7491 60.423 78.477 60.9341C78.2664 61.2894 77.9817 61.8127 77.6164 62.4732C77.2865 63.0768 76.8162 63.5933 76.2451 63.9792C75.7143 64.328 75.094 64.5162 74.4595 64.521C74.1523 64.5379 73.8503 64.4409 73.6116 64.2489C73.4097 64.0566 73.3319 63.7683 73.4098 63.5C73.5017 63.0651 73.8176 62.5539 74.7954 62.5459C74.85 62.5265 74.8991 62.4942 74.9383 62.4517C75.0404 62.3441 75.126 62.2221 75.1925 62.0898C75.5392 61.4667 75.8117 61.0179 75.96 60.6694C76.2905 60.0279 76.7264 59.4456 77.2496 58.9469C77.744 58.4517 78.3226 58.0478 78.9583 57.7544C78.6751 57.2493 78.4378 56.7199 78.2493 56.1723C78.0104 55.518 77.738 54.8763 77.4332 54.25C77.2389 53.867 77.0201 53.6331 76.7773 53.6351C76.4769 53.6423 76.1846 53.5411 75.9542 53.3503C75.7556 53.1535 75.6828 52.863 75.7649 52.5951C75.8853 51.9904 76.4567 51.581 77.0696 51.6603C77.6444 51.6622 78.2014 51.8539 78.6533 52.2056C79.1682 52.6264 79.5754 53.1629 79.8419 53.7713C80.0552 54.241 80.2937 54.7972 80.5449 55.4216C80.7109 55.8955 80.921 56.3527 81.1723 56.7873C81.3165 57.09 81.4603 57.2439 81.5848 57.2491L82.5601 52.7753C82.6157 52.4649 82.7776 52.183 83.0183 51.9776C83.2434 51.7761 83.5378 51.6692 83.8394 51.6793C84.117 51.6558 84.3897 51.7584 84.5815 51.9586C84.7472 52.2204 84.7893 52.5419 84.6965 52.8384L83.7334 57.2315C83.969 57.1163 84.18 56.9566 84.3546 56.7613C84.634 56.4923 85.0559 56.0236 85.5956 55.3803C86.2159 54.6434 86.7557 54.0311 87.2025 53.556C87.6562 53.0826 88.1626 52.6622 88.7117 52.3032C89.245 51.9237 89.8752 51.7034 90.5282 51.668C90.8354 51.6512 91.1374 51.7482 91.3761 51.9402C91.5768 52.1332 91.6543 52.4208 91.5779 52.6891C91.5203 52.9714 91.3533 53.2202 91.1131 53.3814C90.8362 53.5573 90.5137 53.6484 90.186 53.6433C89.7849 53.7416 89.4308 53.9773 89.1855 54.3089C88.5959 54.9147 88.0408 55.5529 87.5228 56.2205C87.0869 56.7667 86.623 57.2901 86.133 57.7888C86.4559 57.9699 86.7469 58.2022 86.9948 58.4764C87.285 58.7878 87.4993 59.1616 87.6212 59.5692C87.8492 60.2801 87.9712 61.0209 87.9836 61.7681C87.9676 61.9771 87.9894 62.187 88.0479 62.3879C88.0481 62.4561 88.1169 62.53 88.1667 62.5295C88.4689 62.5141 88.7659 62.6087 89.0022 62.7956C89.2096 62.9871 89.2922 63.2781 89.2164 63.5506C89.0934 64.0168 88.79 64.5341 87.7562 64.5426ZM83.0229 58.9369L83.2969 58.9346C83.8882 58.8967 84.4698 59.09 84.918 59.4734C85.1663 59.753 85.3445 60.0873 85.4382 60.4492C85.5484 60.9145 85.631 61.3861 85.6858 61.8613C85.6922 62.0399 85.7094 62.2179 85.7374 62.3944C85.7381 62.909 85.9527 63.3993 86.3303 63.7488C86.7079 64.0982 87.2147 64.2757 87.7303 64.2388C88.3966 64.2334 88.7758 64.007 88.88 63.5285C88.9315 63.3652 88.885 63.1873 88.7602 63.0705C88.5818 62.936 88.3607 62.8696 88.1368 62.8833C88.0122 62.8844 87.8376 62.8238 87.7308 62.5455C87.6514 62.3021 87.6209 62.0452 87.6411 61.7895C87.629 61.0737 87.5112 60.3641 87.2915 59.6835C87.1897 59.3197 87.003 58.9855 86.7464 58.7079C86.4771 58.4074 86.1503 58.1634 85.7849 57.9901L85.5853 57.8987L85.7467 57.7423C86.2891 57.2106 86.7969 56.645 87.2669 56.049C87.7912 55.3752 88.3525 54.7307 88.9482 54.1186C89.247 53.7277 89.6777 53.4574 90.1602 53.3582C90.4302 53.3648 90.6966 53.2914 90.9255 53.1472C91.1026 53.0351 91.2241 52.8539 91.2601 52.6483C91.3117 52.486 91.2678 52.3091 91.1465 52.1902C90.9689 52.0541 90.7472 51.9876 90.5231 52.003C89.9381 52.0407 89.3741 52.2385 88.8933 52.5746C88.3645 52.9262 87.877 53.3359 87.44 53.796C86.9994 54.271 86.4596 54.8771 85.8455 55.614C85.2314 56.3509 84.859 56.7323 84.6046 57.0135C84.2011 57.4076 83.909 57.5899 83.6973 57.5916L83.3734 57.5942L84.3913 52.8223C84.4633 52.6173 84.4444 52.3919 84.3394 52.2025C84.207 52.075 84.0242 52.0128 83.8406 52.0329C83.6135 52.0298 83.3925 52.1087 83.2185 52.255C83.0358 52.419 82.9118 52.6379 82.8656 52.8782L81.8351 57.5944L81.586 57.5965C81.3182 57.5986 81.0933 57.3896 80.8989 56.9818C80.6468 56.5346 80.4368 56.065 80.2714 55.5789C80.0202 54.9607 79.7817 54.4107 79.5746 53.941C79.3281 53.3794 78.9508 52.885 78.4737 52.4985C78.0789 52.1855 77.589 52.0147 77.0832 52.0137C76.5041 52.0184 76.1872 52.2381 76.0828 52.7042C76.0256 52.866 76.0647 53.0457 76.184 53.1685C76.3604 53.308 76.5819 53.3789 76.8075 53.3681C77.1688 53.3962 77.4749 53.6604 77.7194 54.1422C77.9639 54.624 78.2338 55.2731 78.548 56.1017C78.7455 56.6866 79.0063 57.248 79.3259 57.7762L79.4323 57.9366L79.2519 58.0063C78.5865 58.283 77.9823 58.6885 77.4747 59.1993C76.9724 59.674 76.5533 60.2289 76.2346 60.8408C76.0614 61.1957 75.8076 61.6692 75.4609 62.2799C75.3782 62.4386 75.2716 62.5838 75.1447 62.7105C75.0475 62.8192 74.911 62.885 74.7654 62.8935C74.1427 62.8986 73.7822 63.131 73.6779 63.6033C73.6264 63.7655 73.6703 63.9424 73.7916 64.0613C73.9694 64.1969 74.1909 64.2634 74.415 64.2485C74.988 64.2453 75.5483 64.0746 76.0264 63.7577C76.5572 63.4005 76.9955 62.9228 77.3047 62.3641C77.6637 61.6975 77.9546 61.1741 78.1589 60.8188C78.4578 60.2542 78.901 59.7776 79.4435 59.4376C79.966 59.1182 80.5678 58.952 81.1795 58.9582L81.5158 58.9554L80.5221 63.5225C80.4682 63.7023 80.4938 63.8962 80.5924 64.0553C80.7 64.1906 80.8683 64.2636 81.0415 64.2501C81.2672 64.2452 81.4856 64.1672 81.6635 64.0279C81.8467 63.8867 81.974 63.6857 82.0229 63.4606L83.0229 58.9369Z" fill="white"/>
<path d="M93.1243 63.4866C93.0798 64.0417 92.6012 64.4635 92.0432 64.4393C91.4636 64.444 91.2382 64.123 91.3794 63.4885L93.8347 52.2914C93.9759 51.6694 94.3237 51.3188 94.8784 51.3204C95.433 51.3221 95.727 51.6426 95.5796 52.2896L94.6466 56.5569L101.888 56.5597L102.821 52.2924C102.862 51.7305 103.343 51.3005 103.908 51.321C104.488 51.3163 104.713 51.6435 104.566 52.2967L102.11 63.4937C102.066 64.0488 101.587 64.4706 101.029 64.4464C100.45 64.4512 100.224 64.1301 100.366 63.4956L101.519 58.2206L94.2782 58.2178L93.1243 63.4866Z" fill="white"/>
<path d="M101.029 64.5962C100.765 64.6224 100.504 64.5234 100.324 64.3288C100.158 64.0692 100.116 63.749 100.209 63.4542L101.326 58.3659L94.3906 58.3668L93.2675 63.5173C93.2041 64.1468 92.6588 64.62 92.0247 64.5955C91.7596 64.6163 91.5 64.5155 91.3196 64.3218C91.1526 64.0648 91.1104 63.7461 91.2046 63.4535L93.6598 52.2566C93.8562 51.3546 94.4164 51.1575 94.8526 51.1664C95.1309 51.139 95.4054 51.2424 95.5951 51.4459C95.7618 51.7077 95.8039 52.0299 95.7103 52.3267L94.8203 56.4011L101.737 56.4065L102.646 52.2637C102.703 51.6283 103.249 51.1463 103.889 51.1669C104.153 51.1413 104.412 51.243 104.587 51.4406C104.76 51.7024 104.803 52.0293 104.703 52.3276L102.247 63.5245C102.187 64.1446 101.654 64.6139 101.029 64.5962ZM94.1528 58.052L101.712 58.0584L100.484 63.5203C100.412 63.7255 100.431 63.9511 100.536 64.1408C100.659 64.2572 100.828 64.3127 100.997 64.2922C101.502 64.2881 101.794 64.0249 101.917 63.4651L104.372 52.2682C104.447 52.0634 104.428 51.8363 104.32 51.6477C104.201 51.5276 104.033 51.4694 103.865 51.49C103.347 51.4942 103.055 51.7574 102.927 52.3421L101.969 56.6965L94.41 56.6901L95.3859 52.2424C95.4587 52.0373 95.4398 51.8113 95.334 51.6219C95.2004 51.4965 95.0177 51.4367 94.8349 51.4584C94.3613 51.4622 94.0818 51.7315 93.9529 52.3038L91.4976 63.5007C91.4231 63.7056 91.4421 63.9323 91.5495 64.1212C91.6703 64.2423 91.8408 64.3005 92.0112 64.2789C92.516 64.2748 92.808 64.0116 92.9307 63.4517L94.1528 58.052Z" fill="white"/>
<path d="M116.48 59.6683C116.279 60.6103 115.854 61.4915 115.242 62.2381C114.641 62.9754 113.871 63.5574 112.997 63.9339C112.059 64.3379 111.047 64.5409 110.026 64.5298C109.085 64.5623 108.151 64.3562 107.313 63.9308C106.618 63.574 106.084 62.9683 105.818 62.2345C105.535 61.4062 105.502 60.5126 105.722 59.6632L106.483 56.1717C106.686 55.2302 107.11 54.3493 107.721 53.6019C108.322 52.8654 109.092 52.2837 109.965 51.9061C110.904 51.5008 111.916 51.2978 112.936 51.3102C113.876 51.2804 114.807 51.4864 115.643 51.9093C116.337 52.2706 116.871 52.8744 117.145 53.6055C117.424 54.4344 117.457 55.3271 117.241 56.1768L116.48 59.6683ZM112.574 52.9781C111.551 52.9313 110.54 53.2236 109.698 53.8094C108.931 54.4124 108.412 55.2748 108.241 56.2318L107.504 59.6051C107.232 60.4324 107.381 61.3383 107.905 62.031C108.399 62.5861 109.235 62.8651 110.401 62.8617C111.424 62.9086 112.436 62.6163 113.278 62.0305C114.045 61.4275 114.563 60.5651 114.734 59.6081L115.471 56.2347C115.725 55.4131 115.591 54.5228 115.108 53.8148C114.601 53.2535 113.752 52.9809 112.562 52.9782L112.574 52.9781Z" fill="white"/>
<path d="M110.123 64.6846L110.048 64.6852C109.082 64.7235 108.123 64.5176 107.26 64.0868C106.534 63.7085 105.975 63.0761 105.69 62.3104C105.402 61.4534 105.366 60.5311 105.587 59.6522L106.355 56.1606C106.549 55.1959 106.974 54.291 107.592 53.5225C108.209 52.7676 108.998 52.1709 109.893 51.7827C110.853 51.3761 111.885 51.1689 112.926 51.1739C113.89 51.1348 114.847 51.3407 115.708 51.7724C116.435 52.1487 116.995 52.7818 117.278 53.5487C117.572 54.4046 117.607 55.3286 117.38 56.2069L116.619 59.6985C116.419 60.6615 115.995 61.5652 115.381 62.3366C114.765 63.0914 113.976 63.6882 113.081 64.0764C112.147 64.4809 111.139 64.6881 110.123 64.6846ZM112.865 51.4664C111.891 51.4627 110.925 51.661 110.031 52.0487C109.179 52.4161 108.428 52.9829 107.842 53.7006C107.256 54.4281 106.851 55.2831 106.66 56.1953L105.893 59.6932C105.684 60.5139 105.715 61.3761 105.982 62.1775C106.243 62.8747 106.753 63.4501 107.415 63.7935C108.227 64.2099 109.132 64.4161 110.047 64.3932C111.045 64.3996 112.035 64.2012 112.956 63.8103C113.805 63.4422 114.554 62.8755 115.138 62.1584C115.726 61.4314 116.133 60.5763 116.326 59.6636L117.087 56.1659C117.304 55.3459 117.273 54.4815 116.998 53.6815C116.741 52.9842 116.232 52.4082 115.571 52.0655C114.758 51.6452 113.85 51.4389 112.933 51.4658L112.865 51.4664ZM110.466 63.0168L110.41 63.0172C109.446 63.1093 108.49 62.7872 107.783 62.1317C107.227 61.404 107.065 60.4488 107.351 59.5756L108.087 56.2023C108.27 55.2153 108.808 54.3272 109.6 53.7048C110.452 53.1127 111.472 52.8102 112.508 52.8423L112.57 52.8418C113.816 52.8316 114.703 53.1412 115.228 53.7271C115.747 54.4712 115.895 55.4131 115.629 56.2834L114.893 59.6567C114.713 60.6447 114.174 61.5338 113.38 62.1542C112.527 62.7497 111.504 63.0525 110.466 63.0168ZM112.509 53.1343C111.54 53.1002 110.585 53.3806 109.788 53.9332C109.054 54.5148 108.558 55.3432 108.393 56.2619L107.656 59.6414C107.393 60.4175 107.528 61.2714 108.019 61.9248C108.67 62.5112 109.54 62.7951 110.415 62.7066C111.402 62.7437 112.375 62.4634 113.192 61.9072C113.928 61.3262 114.426 60.4978 114.593 59.5784L115.33 56.2051C115.57 55.4264 115.446 54.5831 114.992 53.9092C114.331 53.3238 113.453 53.0426 112.571 53.1338L112.509 53.1343Z" fill="white"/>
<path d="M123.379 64.4176C122.327 64.4545 121.276 64.3333 120.262 64.0581C119.636 63.8964 119.117 63.4662 118.843 62.8836C118.613 62.1554 118.611 61.3737 118.835 60.6418L120.002 55.3288C120.147 54.5225 120.479 53.7605 120.973 53.1038C121.461 52.5326 122.112 52.1222 122.839 51.9272C123.822 51.6533 124.841 51.5298 125.86 51.5609L129.169 51.5338C129.798 51.4642 130.422 51.6884 130.86 52.141C131.194 52.7028 131.262 53.3834 131.047 54.0025C130.888 54.7428 130.515 55.1123 129.935 55.1108C129.703 55.1363 129.476 55.0303 129.348 54.8361C129.23 54.5951 129.209 54.3174 129.29 54.0604C129.378 53.847 129.377 53.6078 129.288 53.3959C129.114 53.252 128.887 53.1904 128.664 53.2271L125.442 53.2224C124.726 53.2048 124.01 53.2585 123.305 53.3828C122.893 53.4637 122.523 53.6866 122.26 54.0124C121.979 54.4276 121.789 54.8969 121.703 55.3894L120.562 60.6277C120.424 61.0801 120.409 61.56 120.517 62.0191C120.685 62.3605 121.017 62.5919 121.397 62.6329C122.169 62.762 122.952 62.816 123.735 62.7939L126.521 62.771C126.762 62.79 127.002 62.7291 127.206 62.5978C127.372 62.4129 127.48 62.1827 127.515 61.9369C127.566 61.6458 127.705 61.3763 127.911 61.1636C128.101 60.9791 128.357 60.8785 128.621 60.8846C129.202 60.8798 129.411 61.2569 129.248 62.0159C129.135 62.717 128.786 63.3599 128.257 63.8374C127.699 64.2628 127.008 64.4756 126.308 64.4371L123.379 64.4176Z" fill="white"/>
<path d="M126.359 64.5487L126.309 64.5491L123.374 64.5731C122.307 64.6088 121.241 64.4835 120.213 64.2015C119.55 64.0358 118.996 63.5855 118.701 62.9719C118.454 62.2161 118.44 61.403 118.662 60.6372L119.822 55.318C119.974 54.4882 120.319 53.7047 120.83 53.0306C121.327 52.4286 121.995 51.9901 122.745 51.7729C123.743 51.4941 124.776 51.3684 125.81 51.4L129.119 51.3729C129.795 51.2999 130.465 51.542 130.935 52.0288C131.293 52.6221 131.372 53.3424 131.154 54.0018C130.933 55.0159 130.348 55.2504 129.911 55.254C129.624 55.2791 129.347 55.1424 129.193 54.8997C129.058 54.6242 129.031 54.308 129.116 54.0123C129.202 53.6203 129.145 53.5028 129.114 53.4782C129.083 53.4536 129.001 53.3674 128.627 53.3704L125.468 53.3963C124.763 53.3807 124.058 53.4322 123.362 53.5502C122.987 53.6167 122.648 53.8131 122.404 54.1045C122.14 54.5019 121.963 54.9498 121.885 55.4191L120.737 60.6575C120.609 61.0795 120.593 61.5269 120.691 61.9558C120.78 62.1972 121.036 62.3628 121.46 62.4587C122.22 62.582 122.99 62.6339 123.76 62.6137L126.546 62.5909C126.75 62.6048 126.953 62.5577 127.131 62.4557C127.274 62.2929 127.365 62.0907 127.391 61.876C127.446 61.5553 127.6 61.2591 127.83 61.0279C128.052 60.8214 128.343 60.7059 128.646 60.7045C128.9 60.6904 129.147 60.7937 129.314 60.9847C129.501 61.2966 129.541 61.6755 129.423 62.0209C129.302 62.7583 128.933 63.4339 128.376 63.936C127.794 64.3669 127.081 64.5835 126.359 64.5487ZM123.379 64.2377L126.308 64.2137C126.976 64.2502 127.637 64.0514 128.176 63.6519C128.674 63.1918 129.003 62.5789 129.111 61.9116C129.205 61.6568 129.186 61.3748 129.059 61.1358C128.951 61.0184 128.794 60.9578 128.634 60.9716C128.414 60.9693 128.202 61.0536 128.043 61.2062C127.86 61.3979 127.737 61.6386 127.69 61.8984C127.654 62.1825 127.526 62.4475 127.325 62.6529C127.093 62.8016 126.821 62.8734 126.546 62.858L123.761 62.8808C122.965 62.9049 122.169 62.849 121.386 62.7139C120.959 62.6699 120.586 62.4102 120.399 62.0265C120.279 61.5398 120.292 61.0292 120.437 60.5481L121.579 55.3098C121.663 54.7934 121.862 54.3017 122.16 53.8705C122.45 53.5234 122.853 53.2891 123.298 53.2091C124.014 53.0792 124.74 53.0233 125.467 53.0423L128.633 53.0164C128.899 52.9785 129.167 53.0631 129.362 53.2464C129.49 53.4899 129.507 53.7769 129.409 54.0347C129.342 54.2541 129.356 54.4898 129.448 54.6989C129.55 54.8458 129.726 54.9234 129.904 54.9001C130.403 54.896 130.713 54.5705 130.86 53.9111C131.057 53.3403 130.998 52.7143 130.699 52.1922C130.286 51.7869 129.71 51.5906 129.133 51.6585L125.824 51.6856C124.82 51.6568 123.816 51.7759 122.846 52.0391C122.159 52.2354 121.544 52.6293 121.08 53.1714C120.603 53.8085 120.281 54.5468 120.14 55.3278L118.979 60.647C118.768 61.3491 118.77 62.0971 118.987 62.7957C119.246 63.3335 119.731 63.7292 120.311 63.8778C121.31 64.1477 122.344 64.2669 123.379 64.2315L123.379 64.2377Z" fill="white"/>
<path d="M141.909 51.5748C142.589 51.5693 142.87 51.8528 142.747 52.4068C142.633 52.9588 142.105 53.3266 141.547 53.243L138.591 53.2672L136.312 63.6873C136.253 63.9481 136.103 64.1803 135.89 64.3431C135.659 64.5126 135.379 64.6022 135.093 64.5982C134.849 64.6249 134.606 64.5373 134.437 64.3612C134.297 64.1653 134.259 63.9141 134.335 63.6848L136.632 53.2398L133.633 53.2643C133.378 53.2856 133.125 53.2024 132.934 53.034C132.776 52.8689 132.723 52.6308 132.794 52.4138C132.841 52.1612 132.986 51.9368 133.198 51.7891C133.43 51.6241 133.711 51.5429 133.995 51.5589L141.909 51.5748Z" fill="white"/>
<path d="M135.096 64.73C134.806 64.7565 134.521 64.6489 134.322 64.4381C134.148 64.2077 134.096 63.9078 134.182 63.6315L136.424 53.3923L133.618 53.4153C133.32 53.437 133.027 53.3361 132.806 53.1361C132.619 52.9376 132.552 52.6544 132.629 52.392C132.688 52.1079 132.855 51.8571 133.095 51.6923C133.359 51.5196 133.67 51.4304 133.986 51.4365L141.911 51.4399C142.235 51.3999 142.558 51.5121 142.785 51.7434C142.935 51.9514 142.98 52.2169 142.906 52.4631C142.777 53.0792 142.195 53.4952 141.569 53.4185L138.738 53.4417L136.484 63.7369C136.422 64.0363 136.252 64.3031 136.006 64.4864C135.738 64.6666 135.418 64.7524 135.096 64.73ZM133.962 51.7287C133.716 51.7194 133.474 51.7889 133.27 51.9269C133.091 52.0447 132.968 52.2297 132.929 52.4392C132.875 52.6005 132.912 52.7775 133.024 52.9045C133.189 53.0378 133.399 53.1028 133.611 53.086L136.803 53.0599L134.482 63.6415C134.418 63.8249 134.444 64.0269 134.552 64.1877C134.694 64.3267 134.891 64.3936 135.089 64.3697C135.34 64.3749 135.585 64.2963 135.787 64.1465C135.972 64.0069 136.1 63.8047 136.146 63.5781L138.456 53.0339L141.536 53.0398C142.129 53.0349 142.477 52.8146 142.588 52.329C142.639 52.1747 142.618 52.0061 142.53 51.8697C142.359 51.7213 142.132 51.6531 141.906 51.6822L133.974 51.6789L133.962 51.7287Z" fill="white"/>
<path d="M145.294 58.1016L144.263 62.8228L152.208 62.826C152.469 62.8008 152.729 62.879 152.931 63.0436C153.085 63.2255 153.133 63.474 153.058 63.7007C153.008 63.9388 152.866 64.1478 152.661 64.2814C152.415 64.4289 152.132 64.5024 151.846 64.493L142.985 64.491C142.765 64.5075 142.554 64.4078 142.429 64.2286C142.31 64.0031 142.289 63.7387 142.371 63.4964L144.746 52.6235C144.793 52.3477 144.925 52.0928 145.123 51.894C145.304 51.7209 145.546 51.6272 145.796 51.6339L154.657 51.6359C154.915 51.6149 155.172 51.6927 155.374 51.8535C155.534 52.0326 155.582 52.2843 155.501 52.5106C155.453 52.7513 155.31 52.963 155.104 53.0975C154.859 53.2463 154.574 53.3179 154.288 53.3029L146.343 53.2997L145.656 56.4098L151.046 56.4091C151.337 56.3859 151.626 56.4648 151.863 56.6322C152.039 56.7991 152.101 57.0532 152.021 57.2829C151.904 57.8178 151.457 58.076 150.684 58.0761L145.294 58.1016Z" fill="white"/>
<path d="M151.864 64.6279L143.003 64.6259C142.729 64.6468 142.465 64.5213 142.31 64.2963C142.172 64.0349 142.144 63.7292 142.232 63.4463L144.607 52.5734C144.666 52.2653 144.814 51.9809 145.035 51.7566C145.242 51.563 145.517 51.4562 145.8 51.4585L154.661 51.4604C154.963 51.4359 155.261 51.5317 155.491 51.7268C155.686 51.9413 155.751 52.2436 155.662 52.5202C155.605 52.8016 155.438 53.0491 155.197 53.207C154.923 53.3666 154.61 53.4466 154.294 53.4379L146.474 53.4336L145.86 56.2576L151.057 56.2647C151.384 56.2353 151.71 56.3253 151.974 56.518C152.197 56.721 152.279 57.0367 152.182 57.3234C152.053 57.9454 151.562 58.2288 150.69 58.236L145.43 58.2356L144.467 62.6457L152.219 62.6505C152.52 62.6229 152.818 62.7166 153.048 62.9107C153.246 63.1265 153.311 63.4318 153.219 63.7102C153.165 63.9911 152.997 64.2375 152.754 64.3908C152.488 64.5584 152.177 64.6411 151.864 64.6279ZM145.783 51.7691C145.577 51.7654 145.378 51.8429 145.229 51.9847C145.059 52.1563 144.943 52.3729 144.894 52.6083L142.519 63.475C142.451 63.6796 142.465 63.902 142.558 64.0956C142.655 64.2305 142.817 64.3028 142.983 64.2846L151.844 64.2865C152.1 64.3006 152.354 64.2356 152.572 64.1005C152.745 63.991 152.865 63.8143 152.901 63.6135C152.969 63.4413 152.938 63.246 152.818 63.105C152.642 62.9671 152.418 62.9042 152.195 62.9301L144.056 62.9284L145.155 57.8963L150.67 57.8946C151.355 57.889 151.735 57.6748 151.827 57.227C151.895 57.0528 151.853 56.8551 151.719 56.7249C151.511 56.5826 151.259 56.5187 151.008 56.5445L145.4 56.5407L146.155 53.0947L154.224 53.097C154.479 53.1049 154.731 53.0427 154.953 52.9171C155.128 52.8083 155.249 52.6317 155.288 52.4301C155.35 52.2552 155.318 52.0615 155.205 51.9154C155.027 51.7804 154.804 51.7179 154.581 51.7405L145.72 51.7385L145.783 51.7691Z" fill="white"/>
<path d="M155.527 63.6991L157.983 52.4955C158.028 51.9348 158.507 51.5063 159.071 51.5235C159.657 51.5187 159.87 51.8711 159.698 52.556L157.702 61.6869L167.115 52.0106C167.369 51.7174 167.73 51.5376 168.117 51.5116C168.672 51.507 168.879 51.8408 168.744 52.4881L166.288 63.6917C166.243 64.2462 165.763 64.6664 165.206 64.6387C164.626 64.6435 164.401 64.3409 164.53 63.7496L166.5 54.5133L157.224 64.0952C157.072 64.2727 156.892 64.4233 156.689 64.5407C156.52 64.6213 156.334 64.6591 156.147 64.6508C155.58 64.6554 155.361 64.3341 155.521 63.6991L155.527 63.6991ZM162.159 51.9891C161.342 51.9958 160.811 51.7889 160.561 51.3808C160.301 50.7283 160.283 50.004 160.51 49.3372L160.694 48.4783L162.446 48.4639L162.188 49.6341C162.127 49.9266 162.121 50.1068 162.19 50.1808C162.259 50.2548 162.415 50.2908 162.708 50.2884L164.834 50.271C165.021 50.2915 165.211 50.2531 165.376 50.1609C165.501 50.0051 165.578 49.8167 165.598 49.6186L165.856 48.4484L167.602 48.4341L167.418 49.2868C167.309 50.0489 166.98 50.764 166.471 51.3449C165.945 51.77 165.276 51.9779 164.602 51.9256L162.159 51.9891Z" fill="white"/>
<path d="M165.193 64.8092C164.924 64.8365 164.659 64.7376 164.475 64.5417C164.315 64.3027 164.273 64.0037 164.36 63.7287L166.27 55.015L157.373 64.2023C157.21 64.3934 157.017 64.5566 156.801 64.6853C156.605 64.7726 156.392 64.8147 156.178 64.8085C155.92 64.8312 155.667 64.7348 155.491 64.5469C155.324 64.285 155.284 63.9614 155.382 63.6656L157.839 52.4622C157.896 51.8265 158.442 51.3441 159.082 51.3648C159.341 51.3417 159.595 51.4408 159.768 51.6325C159.952 51.9158 159.995 52.2683 159.884 52.5883L158.005 61.1838L167.001 51.9088C167.282 51.5895 167.679 51.394 168.103 51.3654C168.353 51.3468 168.596 51.4433 168.765 51.6272C168.936 51.8946 168.976 52.2255 168.874 52.5271L166.417 63.7305C166.354 64.353 165.82 64.8237 165.193 64.8092ZM166.796 54.0104L164.659 63.7946C164.596 63.978 164.615 64.1795 164.711 64.3472C164.839 64.4682 165.016 64.524 165.192 64.4986C165.697 64.4944 165.989 64.2311 166.112 63.6709L168.568 52.4675C168.64 52.2628 168.624 52.0377 168.522 51.8466C168.408 51.7398 168.254 51.6868 168.098 51.701C167.755 51.7293 167.437 51.8929 167.214 52.1555L157.46 62.1761L159.572 52.5163C159.656 52.2874 159.637 52.0339 159.52 51.8209C159.403 51.7067 159.24 51.651 159.077 51.6692C158.586 51.6555 158.173 52.0338 158.144 52.5218L155.688 63.7252C155.611 63.9293 155.627 64.1564 155.734 64.3461C155.851 64.4604 156.013 64.5161 156.177 64.4978C156.339 64.5031 156.501 64.472 156.65 64.407C156.835 64.2965 157.001 64.1566 157.141 63.9929L166.796 54.0104ZM164.645 52.1641L164.621 52.1643L162.183 52.1843C161.31 52.1915 160.73 51.9601 160.454 51.5151C160.178 51.07 160.157 50.3743 160.384 49.3535L160.593 48.3764L162.663 48.3594L162.362 49.7163C162.288 50.0524 162.32 50.1391 162.326 50.1453C162.453 50.1836 162.586 50.1973 162.719 50.1856L164.838 50.1682C165.156 50.1656 165.243 50.1152 165.262 50.0964C165.281 50.0776 165.355 50.0024 165.435 49.6352L165.717 48.3406L167.781 48.3237L167.554 49.3631C167.437 50.1553 167.093 50.8981 166.563 51.5023C166.022 51.9573 165.326 52.1877 164.62 52.1457L164.645 52.1641ZM160.825 48.6727L160.665 49.4009C160.45 50.0306 160.464 50.7142 160.703 51.3328C160.916 51.679 161.409 51.8552 162.163 51.8552L164.601 51.8352C165.23 51.875 165.853 51.6818 166.351 51.2928C166.836 50.736 167.147 50.0511 167.248 49.3221L167.396 48.6562L165.968 48.6679L165.741 49.7135C165.716 49.9449 165.618 50.163 165.462 50.3371C165.275 50.4495 165.057 50.5012 164.839 50.4851L162.72 50.5024C162.358 50.5054 162.165 50.4511 162.096 50.3274C162.027 50.2037 162.007 50.0174 162.094 49.6626L162.308 48.6792L160.825 48.6727Z" fill="white"/>
</svg>
